<svg width="2743" height="1546" viewBox="0 0 2743 1546" fill="none" xmlns="http://www.w3.org/2000/svg">
<g filter="url(#filter0_d)">
<rect x="160" y="109" width="985" height="1278" rx="30" fill="white"/>
</g>
<path d="M291.28 202.84C289.76 202.84 288.6 203.067 287.8 203.52C287 203.947 286.653 204.693 286.76 205.76L287.48 213.12C287.507 213.36 287.52 213.693 287.52 214.12C287.52 215.587 287.12 216.707 286.32 217.48C285.547 218.227 284.387 218.733 282.84 219C284.44 219.267 285.613 219.76 286.36 220.48C287.133 221.2 287.52 222.307 287.52 223.8C287.52 224.28 287.507 224.64 287.48 224.88L286.76 232.24C286.653 233.333 287 234.093 287.8 234.52C288.6 234.947 289.76 235.16 291.28 235.16V238.48C288.48 238.48 286.32 238.04 284.8 237.16C283.307 236.307 282.56 234.84 282.56 232.76C282.56 232.36 282.573 232.053 282.6 231.84L283.36 224.92C283.387 224.787 283.4 224.573 283.4 224.28C283.4 223.053 282.947 222.173 282.04 221.64C281.133 221.08 279.627 220.8 277.52 220.8V217.2C279.627 217.2 281.133 216.933 282.04 216.4C282.947 215.84 283.4 214.947 283.4 213.72C283.4 213.453 283.387 213.253 283.36 213.12L282.6 206.2C282.573 205.987 282.56 205.68 282.56 205.28C282.56 203.2 283.307 201.72 284.8 200.84C286.32 199.96 288.48 199.52 291.28 199.52V202.84ZM450.131 267C450.131 269.533 450.411 271.76 450.971 273.68C451.531 275.6 452.384 277.4 453.531 279.08C454.704 280.76 456.291 282.56 458.291 284.48L455.851 286.88C452.384 284 449.797 281.04 448.091 278C446.384 274.933 445.531 271.267 445.531 267C445.531 262.733 446.384 259.08 448.091 256.04C449.797 252.973 452.384 250 455.851 247.12L458.291 249.52C456.317 251.413 454.744 253.2 453.571 254.88C452.424 256.533 451.557 258.333 450.971 260.28C450.411 262.227 450.131 264.467 450.131 267ZM569.213 263.72C569.213 262.733 569.559 261.893 570.253 261.2C570.946 260.48 571.786 260.12 572.773 260.12C573.786 260.12 574.639 260.48 575.333 261.2C576.026 261.893 576.373 262.733 576.373 263.72C576.373 264.707 576.026 265.56 575.333 266.28C574.639 266.973 573.786 267.32 572.773 267.32C571.786 267.32 570.946 266.973 570.253 266.28C569.559 265.56 569.213 264.707 569.213 263.72ZM569.213 277.92C569.213 276.933 569.559 276.093 570.253 275.4C570.946 274.707 571.786 274.36 572.773 274.36C573.813 274.36 574.666 274.707 575.333 275.4C576.026 276.093 576.373 276.933 576.373 277.92C576.373 278.933 576.026 279.787 575.333 280.48C574.666 281.173 573.813 281.52 572.773 281.52C571.786 281.52 570.946 281.173 570.253 280.48C569.559 279.787 569.213 278.933 569.213 277.92ZM671.51 267C671.51 264.467 671.217 262.227 670.63 260.28C670.07 258.333 669.203 256.533 668.03 254.88C666.883 253.2 665.323 251.413 663.35 249.52L665.79 247.12C669.257 250 671.843 252.973 673.55 256.04C675.257 259.08 676.11 262.733 676.11 267C676.11 271.267 675.257 274.933 673.55 278C671.843 281.04 669.257 284 665.79 286.88L663.35 284.48C665.35 282.56 666.923 280.76 668.07 279.08C669.243 277.4 670.11 275.6 670.67 273.68C671.23 271.76 671.51 269.533 671.51 267ZM722.999 250.84C721.479 250.84 720.319 251.067 719.519 251.52C718.719 251.947 718.372 252.693 718.479 253.76L719.199 261.12C719.225 261.36 719.239 261.693 719.239 262.12C719.239 263.587 718.839 264.707 718.039 265.48C717.265 266.227 716.105 266.733 714.559 267C716.159 267.267 717.332 267.76 718.079 268.48C718.852 269.2 719.239 270.307 719.239 271.8C719.239 272.28 719.225 272.64 719.199 272.88L718.479 280.24C718.372 281.333 718.719 282.093 719.519 282.52C720.319 282.947 721.479 283.16 722.999 283.16V286.48C720.199 286.48 718.039 286.04 716.519 285.16C715.025 284.307 714.279 282.84 714.279 280.76C714.279 280.36 714.292 280.053 714.319 279.84L715.079 272.92C715.105 272.787 715.119 272.573 715.119 272.28C715.119 271.053 714.665 270.173 713.759 269.64C712.852 269.08 711.345 268.8 709.239 268.8V265.2C711.345 265.2 712.852 264.933 713.759 264.4C714.665 263.84 715.119 262.947 715.119 261.72C715.119 261.453 715.105 261.253 715.079 261.12L714.319 254.2C714.292 253.987 714.279 253.68 714.279 253.28C714.279 251.2 715.025 249.72 716.519 248.84C718.039 247.96 720.199 247.52 722.999 247.52V250.84ZM498.099 699C498.099 701.533 498.379 703.76 498.939 705.68C499.499 707.6 500.353 709.4 501.499 711.08C502.673 712.76 504.259 714.56 506.259 716.48L503.819 718.88C500.353 716 497.766 713.04 496.059 710C494.353 706.933 493.499 703.267 493.499 699C493.499 694.733 494.353 691.08 496.059 688.04C497.766 684.973 500.353 682 503.819 679.12L506.259 681.52C504.286 683.413 502.713 685.2 501.539 686.88C500.393 688.533 499.526 690.333 498.939 692.28C498.379 694.227 498.099 696.467 498.099 699ZM617.181 695.72C617.181 694.733 617.528 693.893 618.221 693.2C618.915 692.48 619.755 692.12 620.741 692.12C621.755 692.12 622.608 692.48 623.301 693.2C623.995 693.893 624.341 694.733 624.341 695.72C624.341 696.707 623.995 697.56 623.301 698.28C622.608 698.973 621.755 699.32 620.741 699.32C619.755 699.32 618.915 698.973 618.221 698.28C617.528 697.56 617.181 696.707 617.181 695.72ZM617.181 709.92C617.181 708.933 617.528 708.093 618.221 707.4C618.915 706.707 619.755 706.36 620.741 706.36C621.781 706.36 622.635 706.707 623.301 707.4C623.995 708.093 624.341 708.933 624.341 709.92C624.341 710.933 623.995 711.787 623.301 712.48C622.635 713.173 621.781 713.52 620.741 713.52C619.755 713.52 618.915 713.173 618.221 712.48C617.528 711.787 617.181 710.933 617.181 709.92ZM719.479 699C719.479 696.467 719.185 694.227 718.599 692.28C718.039 690.333 717.172 688.533 715.999 686.88C714.852 685.2 713.292 683.413 711.319 681.52L713.759 679.12C717.225 682 719.812 684.973 721.519 688.04C723.225 691.08 724.079 694.733 724.079 699C724.079 703.267 723.225 706.933 721.519 710C719.812 713.04 717.225 716 713.759 718.88L711.319 716.48C713.319 714.56 714.892 712.76 716.039 711.08C717.212 709.4 718.079 707.6 718.639 705.68C719.199 703.76 719.479 701.533 719.479 699ZM770.968 682.84C769.448 682.84 768.288 683.067 767.488 683.52C766.688 683.947 766.341 684.693 766.448 685.76L767.168 693.12C767.194 693.36 767.208 693.693 767.208 694.12C767.208 695.587 766.808 696.707 766.008 697.48C765.234 698.227 764.074 698.733 762.528 699C764.128 699.267 765.301 699.76 766.048 700.48C766.821 701.2 767.208 702.307 767.208 703.8C767.208 704.28 767.194 704.64 767.168 704.88L766.448 712.24C766.341 713.333 766.688 714.093 767.488 714.52C768.288 714.947 769.448 715.16 770.968 715.16V718.48C768.168 718.48 766.008 718.04 764.488 717.16C762.994 716.307 762.248 714.84 762.248 712.76C762.248 712.36 762.261 712.053 762.288 711.84L763.048 704.92C763.074 704.787 763.088 704.573 763.088 704.28C763.088 703.053 762.634 702.173 761.728 701.64C760.821 701.08 759.314 700.8 757.208 700.8V697.2C759.314 697.2 760.821 696.933 761.728 696.4C762.634 695.84 763.088 694.947 763.088 693.72C763.088 693.453 763.074 693.253 763.048 693.12L762.288 686.2C762.261 685.987 762.248 685.68 762.248 685.28C762.248 683.2 762.994 681.72 764.488 680.84C766.008 679.96 768.168 679.52 770.968 679.52V682.84ZM618.021 987C618.021 989.533 618.301 991.76 618.861 993.68C619.421 995.6 620.275 997.4 621.421 999.08C622.595 1000.76 624.181 1002.56 626.181 1004.48L623.741 1006.88C620.275 1004 617.688 1001.04 615.981 998C614.275 994.933 613.421 991.267 613.421 987C613.421 982.733 614.275 979.08 615.981 976.04C617.688 972.973 620.275 970 623.741 967.12L626.181 969.52C624.208 971.413 622.635 973.2 621.461 974.88C620.315 976.533 619.448 978.333 618.861 980.28C618.301 982.227 618.021 984.467 618.021 987ZM737.103 983.72C737.103 982.733 737.45 981.893 738.143 981.2C738.836 980.48 739.676 980.12 740.663 980.12C741.676 980.12 742.53 980.48 743.223 981.2C743.916 981.893 744.263 982.733 744.263 983.72C744.263 984.707 743.916 985.56 743.223 986.28C742.53 986.973 741.676 987.32 740.663 987.32C739.676 987.32 738.836 986.973 738.143 986.28C737.45 985.56 737.103 984.707 737.103 983.72ZM737.103 997.92C737.103 996.933 737.45 996.093 738.143 995.4C738.836 994.707 739.676 994.36 740.663 994.36C741.703 994.36 742.556 994.707 743.223 995.4C743.916 996.093 744.263 996.933 744.263 997.92C744.263 998.933 743.916 999.787 743.223 1000.48C742.556 1001.17 741.703 1001.52 740.663 1001.52C739.676 1001.52 738.836 1001.17 738.143 1000.48C737.45 999.787 737.103 998.933 737.103 997.92ZM839.401 987C839.401 984.467 839.107 982.227 838.521 980.28C837.961 978.333 837.094 976.533 835.921 974.88C834.774 973.2 833.214 971.413 831.241 969.52L833.681 967.12C837.147 970 839.734 972.973 841.441 976.04C843.147 979.08 844.001 982.733 844.001 987C844.001 991.267 843.147 994.933 841.441 998C839.734 1001.04 837.147 1004 833.681 1006.88L831.241 1004.48C833.241 1002.56 834.814 1000.76 835.961 999.08C837.134 997.4 838.001 995.6 838.561 993.68C839.121 991.76 839.401 989.533 839.401 987ZM890.889 970.84C889.369 970.84 888.209 971.067 887.409 971.52C886.609 971.947 886.263 972.693 886.369 973.76L887.089 981.12C887.116 981.36 887.129 981.693 887.129 982.12C887.129 983.587 886.729 984.707 885.929 985.48C885.156 986.227 883.996 986.733 882.449 987C884.049 987.267 885.223 987.76 885.969 988.48C886.743 989.2 887.129 990.307 887.129 991.8C887.129 992.28 887.116 992.64 887.089 992.88L886.369 1000.24C886.263 1001.33 886.609 1002.09 887.409 1002.52C888.209 1002.95 889.369 1003.16 890.889 1003.16V1006.48C888.089 1006.48 885.929 1006.04 884.409 1005.16C882.916 1004.31 882.169 1002.84 882.169 1000.76C882.169 1000.36 882.183 1000.05 882.209 999.84L882.969 992.92C882.996 992.787 883.009 992.573 883.009 992.28C883.009 991.053 882.556 990.173 881.649 989.64C880.743 989.08 879.236 988.8 877.129 988.8V985.2C879.236 985.2 880.743 984.933 881.649 984.4C882.556 983.84 883.009 982.947 883.009 981.72C883.009 981.453 882.996 981.253 882.969 981.12L882.209 974.2C882.183 973.987 882.169 973.68 882.169 973.28C882.169 971.2 882.916 969.72 884.409 968.84C885.929 967.96 888.089 967.52 890.889 967.52V970.84ZM422.626 1111.52C425.426 1111.52 427.573 1111.96 429.066 1112.84C430.586 1113.69 431.346 1115.16 431.346 1117.24C431.346 1117.64 431.333 1117.95 431.306 1118.16L430.546 1125.12L430.506 1125.68C430.506 1126.91 430.973 1127.8 431.906 1128.36C432.866 1128.92 434.36 1129.2 436.386 1129.2V1132.8C434.36 1132.8 432.866 1133.09 431.906 1133.68C430.973 1134.24 430.506 1135.13 430.506 1136.36L430.546 1136.92L431.306 1143.8C431.333 1144.01 431.346 1144.32 431.346 1144.72C431.346 1146.8 430.586 1148.28 429.066 1149.16C427.573 1150.04 425.426 1150.48 422.626 1150.48V1147.16C424.146 1147.16 425.306 1146.95 426.106 1146.52C426.906 1146.09 427.253 1145.33 427.146 1144.24L426.426 1136.88C426.4 1136.64 426.386 1136.29 426.386 1135.84C426.386 1134.35 426.786 1133.24 427.586 1132.52C428.386 1131.77 429.64 1131.28 431.346 1131.04C429.666 1130.75 428.413 1130.23 427.586 1129.48C426.786 1128.73 426.386 1127.61 426.386 1126.12C426.386 1125.69 426.4 1125.36 426.426 1125.12L427.146 1117.76C427.253 1116.69 426.893 1115.95 426.066 1115.52C425.266 1115.07 424.12 1114.84 422.626 1114.84V1111.52ZM374.658 1159.52C377.458 1159.52 379.604 1159.96 381.098 1160.84C382.618 1161.69 383.378 1163.16 383.378 1165.24C383.378 1165.64 383.364 1165.95 383.338 1166.16L382.578 1173.12L382.538 1173.68C382.538 1174.91 383.004 1175.8 383.938 1176.36C384.898 1176.92 386.391 1177.2 388.418 1177.2V1180.8C386.391 1180.8 384.898 1181.09 383.938 1181.68C383.004 1182.24 382.538 1183.13 382.538 1184.36L382.578 1184.92L383.338 1191.8C383.364 1192.01 383.378 1192.32 383.378 1192.72C383.378 1194.8 382.618 1196.28 381.098 1197.16C379.604 1198.04 377.458 1198.48 374.658 1198.48V1195.16C376.178 1195.16 377.338 1194.95 378.138 1194.52C378.938 1194.09 379.284 1193.33 379.178 1192.24L378.458 1184.88C378.431 1184.64 378.418 1184.29 378.418 1183.84C378.418 1182.35 378.818 1181.24 379.618 1180.52C380.418 1179.77 381.671 1179.28 383.378 1179.04C381.698 1178.75 380.444 1178.23 379.618 1177.48C378.818 1176.73 378.418 1175.61 378.418 1174.12C378.418 1173.69 378.431 1173.36 378.458 1173.12L379.178 1165.76C379.284 1164.69 378.924 1163.95 378.098 1163.52C377.298 1163.07 376.151 1162.84 374.658 1162.84V1159.52ZM326.689 1207.52C329.489 1207.52 331.635 1207.96 333.129 1208.84C334.649 1209.69 335.409 1211.16 335.409 1213.24C335.409 1213.64 335.395 1213.95 335.369 1214.16L334.609 1221.12L334.569 1221.68C334.569 1222.91 335.035 1223.8 335.969 1224.36C336.929 1224.92 338.422 1225.2 340.449 1225.2V1228.8C338.422 1228.8 336.929 1229.09 335.969 1229.68C335.035 1230.24 334.569 1231.13 334.569 1232.36L334.609 1232.92L335.369 1239.8C335.395 1240.01 335.409 1240.32 335.409 1240.72C335.409 1242.8 334.649 1244.28 333.129 1245.16C331.635 1246.04 329.489 1246.48 326.689 1246.48V1243.16C328.209 1243.16 329.369 1242.95 330.169 1242.52C330.969 1242.09 331.315 1241.33 331.209 1240.24L330.489 1232.88C330.462 1232.64 330.449 1232.29 330.449 1231.84C330.449 1230.35 330.849 1229.24 331.649 1228.52C332.449 1227.77 333.702 1227.28 335.409 1227.04C333.729 1226.75 332.475 1226.23 331.649 1225.48C330.849 1224.73 330.449 1223.61 330.449 1222.12C330.449 1221.69 330.462 1221.36 330.489 1221.12L331.209 1213.76C331.315 1212.69 330.955 1211.95 330.129 1211.52C329.329 1211.07 328.182 1210.84 326.689 1210.84V1207.52ZM278.72 1255.52C281.52 1255.52 283.667 1255.96 285.16 1256.84C286.68 1257.69 287.44 1259.16 287.44 1261.24C287.44 1261.64 287.427 1261.95 287.4 1262.16L286.64 1269.12L286.6 1269.68C286.6 1270.91 287.067 1271.8 288 1272.36C288.96 1272.92 290.453 1273.2 292.48 1273.2V1276.8C290.453 1276.8 288.96 1277.09 288 1277.68C287.067 1278.24 286.6 1279.13 286.6 1280.36L286.64 1280.92L287.4 1287.8C287.427 1288.01 287.44 1288.32 287.44 1288.72C287.44 1290.8 286.68 1292.28 285.16 1293.16C283.667 1294.04 281.52 1294.48 278.72 1294.48V1291.16C280.24 1291.16 281.4 1290.95 282.2 1290.52C283 1290.09 283.347 1289.33 283.24 1288.24L282.52 1280.88C282.493 1280.64 282.48 1280.29 282.48 1279.84C282.48 1278.35 282.88 1277.24 283.68 1276.52C284.48 1275.77 285.733 1275.28 287.44 1275.04C285.76 1274.75 284.507 1274.23 283.68 1273.48C282.88 1272.73 282.48 1271.61 282.48 1270.12C282.48 1269.69 282.493 1269.36 282.52 1269.12L283.24 1261.76C283.347 1260.69 282.987 1259.95 282.16 1259.52C281.36 1259.07 280.213 1258.84 278.72 1258.84V1255.52Z" fill="#2E383C"/>
<path d="M329.009 274.64C329.009 275.867 329.249 276.76 329.729 277.32C330.235 277.853 330.995 278.12 332.009 278.12C332.969 278.12 333.889 277.84 334.769 277.28C335.675 276.72 336.395 276.013 336.929 275.16V259.88H341.409V281H337.529L337.249 278.28C336.502 279.32 335.529 280.12 334.329 280.68C333.129 281.24 331.889 281.52 330.609 281.52C328.582 281.52 327.062 280.973 326.049 279.88C325.035 278.787 324.529 277.227 324.529 275.2V259.88H329.009V274.64ZM356.193 278.12C357.606 278.12 358.713 277.867 359.513 277.36C360.34 276.853 360.753 276.16 360.753 275.28C360.753 274.667 360.633 274.173 360.393 273.8C360.153 273.4 359.673 273.04 358.953 272.72C358.233 272.373 357.153 272.013 355.713 271.64C353.393 271.053 351.646 270.307 350.473 269.4C349.326 268.467 348.753 267.133 348.753 265.4C348.753 263.56 349.513 262.093 351.033 261C352.553 259.88 354.606 259.32 357.193 259.32C360.313 259.32 362.993 260.133 365.233 261.76L363.313 264.6C361.42 263.347 359.42 262.72 357.313 262.72C354.646 262.72 353.313 263.493 353.313 265.04C353.313 265.573 353.46 266.013 353.753 266.36C354.073 266.707 354.606 267.04 355.353 267.36C356.1 267.653 357.206 268 358.673 268.4C360.966 269.04 362.673 269.827 363.793 270.76C364.94 271.693 365.513 273.093 365.513 274.96C365.513 277.12 364.62 278.76 362.833 279.88C361.046 280.973 358.833 281.52 356.193 281.52C352.7 281.52 349.806 280.533 347.513 278.56L349.873 275.84C350.753 276.533 351.726 277.093 352.793 277.52C353.886 277.92 355.02 278.12 356.193 278.12ZM376.218 271.88C376.351 273.933 376.938 275.48 377.978 276.52C379.044 277.533 380.378 278.04 381.978 278.04C382.964 278.04 383.898 277.893 384.778 277.6C385.684 277.28 386.604 276.813 387.538 276.2L389.458 278.92C388.471 279.747 387.311 280.387 385.978 280.84C384.644 281.293 383.244 281.52 381.778 281.52C378.551 281.52 376.044 280.52 374.258 278.52C372.471 276.493 371.577 273.8 371.577 270.44C371.577 268.333 371.964 266.44 372.738 264.76C373.511 263.053 374.631 261.72 376.098 260.76C377.564 259.8 379.271 259.32 381.218 259.32C384.018 259.32 386.231 260.267 387.858 262.16C389.511 264.027 390.338 266.6 390.338 269.88C390.338 270.68 390.298 271.347 390.218 271.88H376.218ZM381.258 262.64C379.818 262.64 378.644 263.16 377.738 264.2C376.831 265.24 376.311 266.787 376.178 268.84H385.978C385.924 266.84 385.498 265.307 384.698 264.24C383.898 263.173 382.751 262.64 381.258 262.64ZM411.442 259.36C412.535 259.36 413.602 259.533 414.642 259.88L413.882 267.68H410.682V263.36C409.215 263.387 407.935 263.973 406.842 265.12C405.749 266.267 404.895 267.88 404.282 269.96V277.8H408.522V281H396.682V277.8H399.802V263.08H396.682V259.88H403.202L404.002 264.76C404.829 262.947 405.829 261.6 407.002 260.72C408.202 259.813 409.682 259.36 411.442 259.36ZM428.146 278.12C429.56 278.12 430.666 277.867 431.466 277.36C432.293 276.853 432.706 276.16 432.706 275.28C432.706 274.667 432.586 274.173 432.346 273.8C432.106 273.4 431.626 273.04 430.906 272.72C430.186 272.373 429.106 272.013 427.666 271.64C425.346 271.053 423.6 270.307 422.426 269.4C421.28 268.467 420.706 267.133 420.706 265.4C420.706 263.56 421.466 262.093 422.986 261C424.506 259.88 426.56 259.32 429.146 259.32C432.266 259.32 434.946 260.133 437.186 261.76L435.266 264.6C433.373 263.347 431.373 262.72 429.266 262.72C426.6 262.72 425.266 263.493 425.266 265.04C425.266 265.573 425.413 266.013 425.706 266.36C426.026 266.707 426.56 267.04 427.306 267.36C428.053 267.653 429.16 268 430.626 268.4C432.92 269.04 434.626 269.827 435.746 270.76C436.893 271.693 437.466 273.093 437.466 274.96C437.466 277.12 436.573 278.76 434.786 279.88C433 280.973 430.786 281.52 428.146 281.52C424.653 281.52 421.76 280.533 419.466 278.56L421.826 275.84C422.706 276.533 423.68 277.093 424.746 277.52C425.84 277.92 426.973 278.12 428.146 278.12ZM382.818 691.32C387.938 691.32 390.498 695.013 390.498 702.4C390.498 705.733 389.791 708.427 388.378 710.48C386.964 712.507 384.951 713.52 382.338 713.52C380.124 713.52 378.338 712.747 376.978 711.2V721.12L372.498 721.64V691.88H376.378L376.658 694.6C377.458 693.533 378.378 692.72 379.418 692.16C380.484 691.6 381.618 691.32 382.818 691.32ZM381.578 694.76C380.644 694.76 379.791 695.04 379.018 695.6C378.244 696.16 377.564 696.893 376.978 697.8V707.68C378.018 709.253 379.404 710.04 381.138 710.04C382.684 710.04 383.844 709.427 384.618 708.2C385.391 706.973 385.778 705.053 385.778 702.44C385.778 699.747 385.431 697.8 384.738 696.6C384.044 695.373 382.991 694.76 381.578 694.76ZM404.962 691.32C408.002 691.32 410.349 692.32 412.002 694.32C413.655 696.293 414.482 698.987 414.482 702.4C414.482 705.813 413.642 708.52 411.962 710.52C410.282 712.52 407.935 713.52 404.922 713.52C401.882 713.52 399.522 712.547 397.842 710.6C396.189 708.627 395.362 705.907 395.362 702.44C395.362 699.08 396.202 696.387 397.882 694.36C399.589 692.333 401.949 691.32 404.962 691.32ZM404.962 694.8C403.335 694.8 402.109 695.427 401.282 696.68C400.482 697.933 400.082 699.853 400.082 702.44C400.082 705.053 400.482 706.987 401.282 708.24C402.082 709.467 403.295 710.08 404.922 710.08C406.549 710.08 407.762 709.453 408.562 708.2C409.362 706.947 409.762 705.013 409.762 702.4C409.762 699.813 409.362 697.907 408.562 696.68C407.762 695.427 406.562 694.8 404.962 694.8ZM428.146 710.12C429.56 710.12 430.666 709.867 431.466 709.36C432.293 708.853 432.706 708.16 432.706 707.28C432.706 706.667 432.586 706.173 432.346 705.8C432.106 705.4 431.626 705.04 430.906 704.72C430.186 704.373 429.106 704.013 427.666 703.64C425.346 703.053 423.6 702.307 422.426 701.4C421.28 700.467 420.706 699.133 420.706 697.4C420.706 695.56 421.466 694.093 422.986 693C424.506 691.88 426.56 691.32 429.146 691.32C432.266 691.32 434.946 692.133 437.186 693.76L435.266 696.6C433.373 695.347 431.373 694.72 429.266 694.72C426.6 694.72 425.266 695.493 425.266 697.04C425.266 697.573 425.413 698.013 425.706 698.36C426.026 698.707 426.56 699.04 427.306 699.36C428.053 699.653 429.16 700 430.626 700.4C432.92 701.04 434.626 701.827 435.746 702.76C436.893 703.693 437.466 705.093 437.466 706.96C437.466 709.12 436.573 710.76 434.786 711.88C433 712.973 430.786 713.52 428.146 713.52C424.653 713.52 421.76 712.533 419.466 710.56L421.826 707.84C422.706 708.533 423.68 709.093 424.746 709.52C425.84 709.92 426.973 710.12 428.146 710.12ZM462.091 711.88C461.291 712.387 460.357 712.787 459.291 713.08C458.224 713.373 457.104 713.52 455.931 713.52C453.531 713.52 451.677 712.907 450.371 711.68C449.064 710.427 448.411 708.733 448.411 706.6V695.16H443.731V691.88H448.411V687.16L452.891 686.64V691.88H460.051L459.531 695.16H452.891V706.56C452.891 707.707 453.184 708.56 453.771 709.12C454.357 709.653 455.291 709.92 456.571 709.92C457.984 709.92 459.291 709.587 460.491 708.92L462.091 711.88ZM476.115 710.12C477.528 710.12 478.635 709.867 479.435 709.36C480.262 708.853 480.675 708.16 480.675 707.28C480.675 706.667 480.555 706.173 480.315 705.8C480.075 705.4 479.595 705.04 478.875 704.72C478.155 704.373 477.075 704.013 475.635 703.64C473.315 703.053 471.568 702.307 470.395 701.4C469.248 700.467 468.675 699.133 468.675 697.4C468.675 695.56 469.435 694.093 470.955 693C472.475 691.88 474.528 691.32 477.115 691.32C480.235 691.32 482.915 692.133 485.155 693.76L483.235 696.6C481.342 695.347 479.342 694.72 477.235 694.72C474.568 694.72 473.235 695.493 473.235 697.04C473.235 697.573 473.382 698.013 473.675 698.36C473.995 698.707 474.528 699.04 475.275 699.36C476.022 699.653 477.128 700 478.595 700.4C480.888 701.04 482.595 701.827 483.715 702.76C484.862 703.693 485.435 705.093 485.435 706.96C485.435 709.12 484.542 710.76 482.755 711.88C480.968 712.973 478.755 713.52 476.115 713.52C472.622 713.52 469.728 712.533 467.435 710.56L469.795 707.84C470.675 708.533 471.648 709.093 472.715 709.52C473.808 709.92 474.942 710.12 476.115 710.12ZM430.666 997.84C432.346 997.84 434.08 997.24 435.866 996.04L437.906 998.92C436.973 999.72 435.853 1000.36 434.546 1000.84C433.24 1001.29 431.893 1001.52 430.506 1001.52C427.28 1001.52 424.76 1000.53 422.946 998.56C421.133 996.56 420.226 993.893 420.226 990.56C420.226 988.4 420.64 986.48 421.466 984.8C422.293 983.093 423.48 981.76 425.026 980.8C426.6 979.813 428.453 979.32 430.586 979.32C433.386 979.32 435.826 980.173 437.906 981.88L435.826 984.68C434.12 983.507 432.4 982.92 430.666 982.92C428.906 982.92 427.52 983.56 426.506 984.84C425.493 986.093 424.986 988 424.986 990.56C424.986 993.067 425.493 994.907 426.506 996.08C427.52 997.253 428.906 997.84 430.666 997.84ZM452.931 979.32C455.971 979.32 458.317 980.32 459.971 982.32C461.624 984.293 462.451 986.987 462.451 990.4C462.451 993.813 461.611 996.52 459.931 998.52C458.251 1000.52 455.904 1001.52 452.891 1001.52C449.851 1001.52 447.491 1000.55 445.811 998.6C444.157 996.627 443.331 993.907 443.331 990.44C443.331 987.08 444.171 984.387 445.851 982.36C447.557 980.333 449.917 979.32 452.931 979.32ZM452.931 982.8C451.304 982.8 450.077 983.427 449.251 984.68C448.451 985.933 448.051 987.853 448.051 990.44C448.051 993.053 448.451 994.987 449.251 996.24C450.051 997.467 451.264 998.08 452.891 998.08C454.517 998.08 455.731 997.453 456.531 996.2C457.331 994.947 457.731 993.013 457.731 990.4C457.731 987.813 457.331 985.907 456.531 984.68C455.731 983.427 454.531 982.8 452.931 982.8ZM482.995 979.32C484.302 979.32 485.328 979.773 486.075 980.68C486.822 981.587 487.195 983.133 487.195 985.32V1001H483.235V985.92C483.235 984.747 483.142 983.933 482.955 983.48C482.795 983.027 482.422 982.8 481.835 982.8C480.715 982.8 479.675 983.507 478.715 984.92V1001H475.075V985.92C475.075 984.747 474.982 983.933 474.795 983.48C474.635 983.027 474.262 982.8 473.675 982.8C472.555 982.8 471.515 983.507 470.555 984.92V1001H466.555V979.88H469.915L470.235 982.16C470.902 981.227 471.582 980.52 472.275 980.04C472.968 979.56 473.795 979.32 474.755 979.32C476.622 979.32 477.822 980.213 478.355 982C478.995 981.147 479.688 980.493 480.435 980.04C481.182 979.56 482.035 979.32 482.995 979.32ZM506.979 979.32C508.286 979.32 509.313 979.773 510.059 980.68C510.806 981.587 511.179 983.133 511.179 985.32V1001H507.219V985.92C507.219 984.747 507.126 983.933 506.939 983.48C506.779 983.027 506.406 982.8 505.819 982.8C504.699 982.8 503.659 983.507 502.699 984.92V1001H499.059V985.92C499.059 984.747 498.966 983.933 498.779 983.48C498.619 983.027 498.246 982.8 497.659 982.8C496.539 982.8 495.499 983.507 494.539 984.92V1001H490.539V979.88H493.899L494.219 982.16C494.886 981.227 495.566 980.52 496.259 980.04C496.953 979.56 497.779 979.32 498.739 979.32C500.606 979.32 501.806 980.213 502.339 982C502.979 981.147 503.673 980.493 504.419 980.04C505.166 979.56 506.019 979.32 506.979 979.32ZM520.124 991.88C520.257 993.933 520.844 995.48 521.884 996.52C522.95 997.533 524.284 998.04 525.884 998.04C526.87 998.04 527.804 997.893 528.684 997.6C529.59 997.28 530.51 996.813 531.444 996.2L533.364 998.92C532.377 999.747 531.217 1000.39 529.884 1000.84C528.55 1001.29 527.15 1001.52 525.684 1001.52C522.457 1001.52 519.95 1000.52 518.164 998.52C516.377 996.493 515.484 993.8 515.484 990.44C515.484 988.333 515.87 986.44 516.644 984.76C517.417 983.053 518.537 981.72 520.004 980.76C521.47 979.8 523.177 979.32 525.124 979.32C527.924 979.32 530.137 980.267 531.764 982.16C533.417 984.027 534.244 986.6 534.244 989.88C534.244 990.68 534.204 991.347 534.124 991.88H520.124ZM525.164 982.64C523.724 982.64 522.55 983.16 521.644 984.2C520.737 985.24 520.217 986.787 520.084 988.84H529.884C529.83 986.84 529.404 985.307 528.604 984.24C527.804 983.173 526.657 982.64 525.164 982.64ZM540.388 979.88H544.268L544.588 982.64C545.468 981.573 546.495 980.76 547.668 980.2C548.868 979.613 550.121 979.32 551.428 979.32C553.375 979.32 554.841 979.867 555.828 980.96C556.815 982.053 557.308 983.6 557.308 985.6V1001H552.828V987.84C552.828 986.533 552.748 985.533 552.588 984.84C552.455 984.12 552.175 983.6 551.748 983.28C551.321 982.933 550.681 982.76 549.828 982.76C548.868 982.76 547.948 983.053 547.068 983.64C546.215 984.227 545.481 984.96 544.868 985.84V1001H540.388V979.88ZM582.013 999.88C581.213 1000.39 580.279 1000.79 579.213 1001.08C578.146 1001.37 577.026 1001.52 575.853 1001.52C573.453 1001.52 571.599 1000.91 570.293 999.68C568.986 998.427 568.333 996.733 568.333 994.6V983.16H563.653V979.88H568.333V975.16L572.813 974.64V979.88H579.973L579.453 983.16H572.813V994.56C572.813 995.707 573.106 996.56 573.693 997.12C574.279 997.653 575.213 997.92 576.493 997.92C577.906 997.92 579.213 997.587 580.413 996.92L582.013 999.88ZM596.037 998.12C597.45 998.12 598.557 997.867 599.357 997.36C600.184 996.853 600.597 996.16 600.597 995.28C600.597 994.667 600.477 994.173 600.237 993.8C599.997 993.4 599.517 993.04 598.797 992.72C598.077 992.373 596.997 992.013 595.557 991.64C593.237 991.053 591.49 990.307 590.317 989.4C589.17 988.467 588.597 987.133 588.597 985.4C588.597 983.56 589.357 982.093 590.877 981C592.397 979.88 594.45 979.32 597.037 979.32C600.157 979.32 602.837 980.133 605.077 981.76L603.157 984.6C601.264 983.347 599.264 982.72 597.157 982.72C594.49 982.72 593.157 983.493 593.157 985.04C593.157 985.573 593.304 986.013 593.597 986.36C593.917 986.707 594.45 987.04 595.197 987.36C595.944 987.653 597.05 988 598.517 988.4C600.81 989.04 602.517 989.827 603.637 990.76C604.784 991.693 605.357 993.093 605.357 994.96C605.357 997.12 604.464 998.76 602.677 999.88C600.89 1000.97 598.677 1001.52 596.037 1001.52C592.544 1001.52 589.65 1000.53 587.357 998.56L589.717 995.84C590.597 996.533 591.57 997.093 592.637 997.52C593.73 997.92 594.864 998.12 596.037 998.12Z" fill="#047D65"/>
<path d="M486.075 279.88C485.275 280.387 484.342 280.787 483.275 281.08C482.208 281.373 481.088 281.52 479.915 281.52C477.515 281.52 475.662 280.907 474.355 279.68C473.048 278.427 472.395 276.733 472.395 274.6V263.16H467.715V259.88H472.395V255.16L476.875 254.64V259.88H484.035L483.515 263.16H476.875V274.56C476.875 275.707 477.168 276.56 477.755 277.12C478.342 277.653 479.275 277.92 480.555 277.92C481.968 277.92 483.275 277.587 484.475 276.92L486.075 279.88ZM508.579 275.84C508.579 276.64 508.699 277.24 508.939 277.64C509.179 278.013 509.593 278.293 510.179 278.48L509.139 281.52C506.926 281.253 505.473 280.28 504.779 278.6C504.006 279.56 503.033 280.293 501.859 280.8C500.713 281.28 499.446 281.52 498.059 281.52C495.926 281.52 494.233 280.92 492.979 279.72C491.726 278.52 491.099 276.933 491.099 274.96C491.099 272.747 491.966 271.04 493.699 269.84C495.459 268.64 497.939 268.04 501.139 268.04H504.139V266.68C504.139 265.347 503.739 264.373 502.939 263.76C502.139 263.147 500.979 262.84 499.459 262.84C498.713 262.84 497.846 262.933 496.859 263.12C495.873 263.307 494.873 263.573 493.859 263.92L492.739 260.76C495.273 259.8 497.739 259.32 500.139 259.32C502.939 259.32 505.046 259.933 506.459 261.16C507.873 262.387 508.579 264.133 508.579 266.4V275.84ZM499.379 278.24C500.313 278.24 501.206 278 502.059 277.52C502.939 277.04 503.633 276.373 504.139 275.52V270.84H501.659C499.633 270.84 498.153 271.187 497.219 271.88C496.286 272.547 495.819 273.52 495.819 274.8C495.819 275.92 496.113 276.773 496.699 277.36C497.313 277.947 498.206 278.24 499.379 278.24ZM521.004 281H516.524V251.4L521.004 250.88V281ZM526.484 269.32L535.884 281H530.404L521.324 269.44L529.804 259.88H535.004L526.484 269.32ZM544.108 271.88C544.241 273.933 544.828 275.48 545.868 276.52C546.935 277.533 548.268 278.04 549.868 278.04C550.855 278.04 551.788 277.893 552.668 277.6C553.575 277.28 554.495 276.813 555.428 276.2L557.348 278.92C556.361 279.747 555.201 280.387 553.868 280.84C552.535 281.293 551.135 281.52 549.668 281.52C546.441 281.52 543.935 280.52 542.148 278.52C540.361 276.493 539.468 273.8 539.468 270.44C539.468 268.333 539.855 266.44 540.628 264.76C541.401 263.053 542.521 261.72 543.988 260.76C545.455 259.8 547.161 259.32 549.108 259.32C551.908 259.32 554.121 260.267 555.748 262.16C557.401 264.027 558.228 266.6 558.228 269.88C558.228 270.68 558.188 271.347 558.108 271.88H544.108ZM549.148 262.64C547.708 262.64 546.535 263.16 545.628 264.2C544.721 265.24 544.201 266.787 544.068 268.84H553.868C553.815 266.84 553.388 265.307 552.588 264.24C551.788 263.173 550.641 262.64 549.148 262.64ZM380.938 297.52C381.791 297.52 382.484 297.8 383.018 298.36C383.578 298.893 383.858 299.56 383.858 300.36C383.858 301.16 383.578 301.827 383.018 302.36C382.484 302.893 381.791 303.16 380.938 303.16C380.058 303.16 379.351 302.893 378.818 302.36C378.284 301.827 378.018 301.16 378.018 300.36C378.018 299.533 378.284 298.853 378.818 298.32C379.378 297.787 380.084 297.52 380.938 297.52ZM384.018 325.72H389.778V329H373.258V325.72H379.538V311.16H373.458V307.88H384.018V325.72ZM413.362 299.4V329H409.402L409.082 326.4C408.389 327.413 407.535 328.187 406.522 328.72C405.509 329.253 404.389 329.52 403.162 329.52C400.522 329.52 398.535 328.533 397.202 326.56C395.869 324.587 395.202 321.88 395.202 318.44C395.202 316.28 395.535 314.36 396.202 312.68C396.895 311 397.869 309.693 399.122 308.76C400.375 307.8 401.855 307.32 403.562 307.32C405.722 307.32 407.495 308.093 408.882 309.64V298.88L413.362 299.4ZM404.722 310.76C403.175 310.76 401.989 311.4 401.162 312.68C400.362 313.933 399.962 315.853 399.962 318.44C399.962 323.56 401.429 326.12 404.362 326.12C406.122 326.12 407.629 325.107 408.882 323.08V313.12C407.789 311.547 406.402 310.76 404.722 310.76ZM376.218 367.88C376.351 369.933 376.938 371.48 377.978 372.52C379.044 373.533 380.378 374.04 381.978 374.04C382.964 374.04 383.898 373.893 384.778 373.6C385.684 373.28 386.604 372.813 387.538 372.2L389.458 374.92C388.471 375.747 387.311 376.387 385.978 376.84C384.644 377.293 383.244 377.52 381.778 377.52C378.551 377.52 376.044 376.52 374.258 374.52C372.471 372.493 371.577 369.8 371.577 366.44C371.577 364.333 371.964 362.44 372.738 360.76C373.511 359.053 374.631 357.72 376.098 356.76C377.564 355.8 379.271 355.32 381.218 355.32C384.018 355.32 386.231 356.267 387.858 358.16C389.511 360.027 390.338 362.6 390.338 365.88C390.338 366.68 390.298 367.347 390.218 367.88H376.218ZM381.258 358.64C379.818 358.64 378.644 359.16 377.738 360.2C376.831 361.24 376.311 362.787 376.178 364.84H385.978C385.924 362.84 385.498 361.307 384.698 360.24C383.898 359.173 382.751 358.64 381.258 358.64ZM411.042 355.32C412.349 355.32 413.375 355.773 414.122 356.68C414.869 357.587 415.242 359.133 415.242 361.32V377H411.282V361.92C411.282 360.747 411.189 359.933 411.002 359.48C410.842 359.027 410.469 358.8 409.882 358.8C408.762 358.8 407.722 359.507 406.762 360.92V377H403.122V361.92C403.122 360.747 403.029 359.933 402.842 359.48C402.682 359.027 402.309 358.8 401.722 358.8C400.602 358.8 399.562 359.507 398.602 360.92V377H394.602V355.88H397.962L398.282 358.16C398.949 357.227 399.629 356.52 400.322 356.04C401.015 355.56 401.842 355.32 402.802 355.32C404.669 355.32 405.869 356.213 406.402 358C407.042 357.147 407.735 356.493 408.482 356.04C409.229 355.56 410.082 355.32 411.042 355.32ZM436.626 371.84C436.626 372.64 436.746 373.24 436.986 373.64C437.226 374.013 437.64 374.293 438.226 374.48L437.186 377.52C434.973 377.253 433.52 376.28 432.826 374.6C432.053 375.56 431.08 376.293 429.906 376.8C428.76 377.28 427.493 377.52 426.106 377.52C423.973 377.52 422.28 376.92 421.026 375.72C419.773 374.52 419.146 372.933 419.146 370.96C419.146 368.747 420.013 367.04 421.746 365.84C423.506 364.64 425.986 364.04 429.186 364.04H432.186V362.68C432.186 361.347 431.786 360.373 430.986 359.76C430.186 359.147 429.026 358.84 427.506 358.84C426.76 358.84 425.893 358.933 424.906 359.12C423.92 359.307 422.92 359.573 421.906 359.92L420.786 356.76C423.32 355.8 425.786 355.32 428.186 355.32C430.986 355.32 433.093 355.933 434.506 357.16C435.92 358.387 436.626 360.133 436.626 362.4V371.84ZM427.426 374.24C428.36 374.24 429.253 374 430.106 373.52C430.986 373.04 431.68 372.373 432.186 371.52V366.84H429.706C427.68 366.84 426.2 367.187 425.266 367.88C424.333 368.547 423.866 369.52 423.866 370.8C423.866 371.92 424.16 372.773 424.746 373.36C425.36 373.947 426.253 374.24 427.426 374.24ZM452.891 345.52C453.744 345.52 454.437 345.8 454.971 346.36C455.531 346.893 455.811 347.56 455.811 348.36C455.811 349.16 455.531 349.827 454.971 350.36C454.437 350.893 453.744 351.16 452.891 351.16C452.011 351.16 451.304 350.893 450.771 350.36C450.237 349.827 449.971 349.16 449.971 348.36C449.971 347.533 450.237 346.853 450.771 346.32C451.331 345.787 452.037 345.52 452.891 345.52ZM455.971 373.72H461.731V377H445.211V373.72H451.491V359.16H445.411V355.88H455.971V373.72ZM477.715 371.24C477.715 373.027 478.782 373.92 480.915 373.92C481.982 373.92 483.102 373.68 484.275 373.2L485.395 376.32C483.928 377.12 482.115 377.52 479.955 377.52C477.848 377.52 476.195 376.933 474.995 375.76C473.822 374.56 473.235 372.92 473.235 370.84V350.68H466.875V347.4H477.715V371.24ZM372.498 403.88H376.378L376.698 406.64C377.578 405.573 378.604 404.76 379.778 404.2C380.978 403.613 382.231 403.32 383.538 403.32C385.484 403.32 386.951 403.867 387.938 404.96C388.924 406.053 389.418 407.6 389.418 409.6V425H384.938V411.84C384.938 410.533 384.858 409.533 384.698 408.84C384.564 408.12 384.284 407.6 383.858 407.28C383.431 406.933 382.791 406.76 381.938 406.76C380.978 406.76 380.058 407.053 379.178 407.64C378.324 408.227 377.591 408.96 376.978 409.84V425H372.498V403.88ZM412.642 419.84C412.642 420.64 412.762 421.24 413.002 421.64C413.242 422.013 413.655 422.293 414.242 422.48L413.202 425.52C410.989 425.253 409.535 424.28 408.842 422.6C408.069 423.56 407.095 424.293 405.922 424.8C404.775 425.28 403.509 425.52 402.122 425.52C399.989 425.52 398.295 424.92 397.042 423.72C395.789 422.52 395.162 420.933 395.162 418.96C395.162 416.747 396.029 415.04 397.762 413.84C399.522 412.64 402.002 412.04 405.202 412.04H408.202V410.68C408.202 409.347 407.802 408.373 407.002 407.76C406.202 407.147 405.042 406.84 403.522 406.84C402.775 406.84 401.909 406.933 400.922 407.12C399.935 407.307 398.935 407.573 397.922 407.92L396.802 404.76C399.335 403.8 401.802 403.32 404.202 403.32C407.002 403.32 409.109 403.933 410.522 405.16C411.935 406.387 412.642 408.133 412.642 410.4V419.84ZM403.442 422.24C404.375 422.24 405.269 422 406.122 421.52C407.002 421.04 407.695 420.373 408.202 419.52V414.84H405.722C403.695 414.84 402.215 415.187 401.282 415.88C400.349 416.547 399.882 417.52 399.882 418.8C399.882 419.92 400.175 420.773 400.762 421.36C401.375 421.947 402.269 422.24 403.442 422.24ZM435.026 403.32C436.333 403.32 437.36 403.773 438.106 404.68C438.853 405.587 439.226 407.133 439.226 409.32V425H435.266V409.92C435.266 408.747 435.173 407.933 434.986 407.48C434.826 407.027 434.453 406.8 433.866 406.8C432.746 406.8 431.706 407.507 430.746 408.92V425H427.106V409.92C427.106 408.747 427.013 407.933 426.826 407.48C426.666 407.027 426.293 406.8 425.706 406.8C424.586 406.8 423.546 407.507 422.586 408.92V425H418.586V403.88H421.946L422.266 406.16C422.933 405.227 423.613 404.52 424.306 404.04C425 403.56 425.826 403.32 426.786 403.32C428.653 403.32 429.853 404.213 430.386 406C431.026 405.147 431.72 404.493 432.466 404.04C433.213 403.56 434.066 403.32 435.026 403.32ZM448.171 415.88C448.304 417.933 448.891 419.48 449.931 420.52C450.997 421.533 452.331 422.04 453.931 422.04C454.917 422.04 455.851 421.893 456.731 421.6C457.637 421.28 458.557 420.813 459.491 420.2L461.411 422.92C460.424 423.747 459.264 424.387 457.931 424.84C456.597 425.293 455.197 425.52 453.731 425.52C450.504 425.52 447.997 424.52 446.211 422.52C444.424 420.493 443.531 417.8 443.531 414.44C443.531 412.333 443.917 410.44 444.691 408.76C445.464 407.053 446.584 405.72 448.051 404.76C449.517 403.8 451.224 403.32 453.171 403.32C455.971 403.32 458.184 404.267 459.811 406.16C461.464 408.027 462.291 410.6 462.291 413.88C462.291 414.68 462.251 415.347 462.171 415.88H448.171ZM453.211 406.64C451.771 406.64 450.597 407.16 449.691 408.2C448.784 409.24 448.264 410.787 448.131 412.84H457.931C457.877 410.84 457.451 409.307 456.651 408.24C455.851 407.173 454.704 406.64 453.211 406.64ZM534.044 711.88C533.244 712.387 532.31 712.787 531.244 713.08C530.177 713.373 529.057 713.52 527.884 713.52C525.484 713.52 523.63 712.907 522.324 711.68C521.017 710.427 520.364 708.733 520.364 706.6V695.16H515.684V691.88H520.364V687.16L524.844 686.64V691.88H532.004L531.484 695.16H524.844V706.56C524.844 707.707 525.137 708.56 525.724 709.12C526.31 709.653 527.244 709.92 528.524 709.92C529.937 709.92 531.244 709.587 532.444 708.92L534.044 711.88ZM556.548 707.84C556.548 708.64 556.668 709.24 556.908 709.64C557.148 710.013 557.561 710.293 558.148 710.48L557.108 713.52C554.895 713.253 553.441 712.28 552.748 710.6C551.975 711.56 551.001 712.293 549.828 712.8C548.681 713.28 547.415 713.52 546.028 713.52C543.895 713.52 542.201 712.92 540.948 711.72C539.695 710.52 539.068 708.933 539.068 706.96C539.068 704.747 539.935 703.04 541.668 701.84C543.428 700.64 545.908 700.04 549.108 700.04H552.108V698.68C552.108 697.347 551.708 696.373 550.908 695.76C550.108 695.147 548.948 694.84 547.428 694.84C546.681 694.84 545.815 694.933 544.828 695.12C543.841 695.307 542.841 695.573 541.828 695.92L540.708 692.76C543.241 691.8 545.708 691.32 548.108 691.32C550.908 691.32 553.015 691.933 554.428 693.16C555.841 694.387 556.548 696.133 556.548 698.4V707.84ZM547.348 710.24C548.281 710.24 549.175 710 550.028 709.52C550.908 709.04 551.601 708.373 552.108 707.52V702.84H549.628C547.601 702.84 546.121 703.187 545.188 703.88C544.255 704.547 543.788 705.52 543.788 706.8C543.788 707.92 544.081 708.773 544.668 709.36C545.281 709.947 546.175 710.24 547.348 710.24ZM568.973 713H564.493V683.4L568.973 682.88V713ZM574.453 701.32L583.853 713H578.373L569.293 701.44L577.773 691.88H582.973L574.453 701.32ZM592.077 703.88C592.21 705.933 592.797 707.48 593.837 708.52C594.904 709.533 596.237 710.04 597.837 710.04C598.824 710.04 599.757 709.893 600.637 709.6C601.544 709.28 602.464 708.813 603.397 708.2L605.317 710.92C604.33 711.747 603.17 712.387 601.837 712.84C600.504 713.293 599.104 713.52 597.637 713.52C594.41 713.52 591.904 712.52 590.117 710.52C588.33 708.493 587.437 705.8 587.437 702.44C587.437 700.333 587.824 698.44 588.597 696.76C589.37 695.053 590.49 693.72 591.957 692.76C593.424 691.8 595.13 691.32 597.077 691.32C599.877 691.32 602.09 692.267 603.717 694.16C605.37 696.027 606.197 698.6 606.197 701.88C606.197 702.68 606.157 703.347 606.077 703.88H592.077ZM597.117 694.64C595.677 694.64 594.504 695.16 593.597 696.2C592.69 697.24 592.17 698.787 592.037 700.84H601.837C601.784 698.84 601.357 697.307 600.557 696.24C599.757 695.173 598.61 694.64 597.117 694.64ZM428.906 729.52C429.76 729.52 430.453 729.8 430.986 730.36C431.546 730.893 431.826 731.56 431.826 732.36C431.826 733.16 431.546 733.827 430.986 734.36C430.453 734.893 429.76 735.16 428.906 735.16C428.026 735.16 427.32 734.893 426.786 734.36C426.253 733.827 425.986 733.16 425.986 732.36C425.986 731.533 426.253 730.853 426.786 730.32C427.346 729.787 428.053 729.52 428.906 729.52ZM431.986 757.72H437.746V761H421.226V757.72H427.506V743.16H421.426V739.88H431.986V757.72ZM461.331 731.4V761H457.371L457.051 758.4C456.357 759.413 455.504 760.187 454.491 760.72C453.477 761.253 452.357 761.52 451.131 761.52C448.491 761.52 446.504 760.533 445.171 758.56C443.837 756.587 443.171 753.88 443.171 750.44C443.171 748.28 443.504 746.36 444.171 744.68C444.864 743 445.837 741.693 447.091 740.76C448.344 739.8 449.824 739.32 451.531 739.32C453.691 739.32 455.464 740.093 456.851 741.64V730.88L461.331 731.4ZM452.691 742.76C451.144 742.76 449.957 743.4 449.131 744.68C448.331 745.933 447.931 747.853 447.931 750.44C447.931 755.56 449.397 758.12 452.331 758.12C454.091 758.12 455.597 757.107 456.851 755.08V745.12C455.757 743.547 454.371 742.76 452.691 742.76ZM438.106 807.88C437.306 808.387 436.373 808.787 435.306 809.08C434.24 809.373 433.12 809.52 431.946 809.52C429.546 809.52 427.693 808.907 426.386 807.68C425.08 806.427 424.426 804.733 424.426 802.6V791.16H419.746V787.88H424.426V783.16L428.906 782.64V787.88H436.066L435.546 791.16H428.906V802.56C428.906 803.707 429.2 804.56 429.786 805.12C430.373 805.653 431.306 805.92 432.586 805.92C434 805.92 435.306 805.587 436.506 804.92L438.106 807.88ZM452.891 777.52C453.744 777.52 454.437 777.8 454.971 778.36C455.531 778.893 455.811 779.56 455.811 780.36C455.811 781.16 455.531 781.827 454.971 782.36C454.437 782.893 453.744 783.16 452.891 783.16C452.011 783.16 451.304 782.893 450.771 782.36C450.237 781.827 449.971 781.16 449.971 780.36C449.971 779.533 450.237 778.853 450.771 778.32C451.331 777.787 452.037 777.52 452.891 777.52ZM455.971 805.72H461.731V809H445.211V805.72H451.491V791.16H445.411V787.88H455.971V805.72ZM486.075 807.88C485.275 808.387 484.342 808.787 483.275 809.08C482.208 809.373 481.088 809.52 479.915 809.52C477.515 809.52 475.662 808.907 474.355 807.68C473.048 806.427 472.395 804.733 472.395 802.6V791.16H467.715V787.88H472.395V783.16L476.875 782.64V787.88H484.035L483.515 791.16H476.875V802.56C476.875 803.707 477.168 804.56 477.755 805.12C478.342 805.653 479.275 805.92 480.555 805.92C481.968 805.92 483.275 805.587 484.475 804.92L486.075 807.88ZM501.699 803.24C501.699 805.027 502.766 805.92 504.899 805.92C505.966 805.92 507.086 805.68 508.259 805.2L509.379 808.32C507.913 809.12 506.099 809.52 503.939 809.52C501.833 809.52 500.179 808.933 498.979 807.76C497.806 806.56 497.219 804.92 497.219 802.84V782.68H490.859V779.4H501.699V803.24ZM520.124 799.88C520.257 801.933 520.844 803.48 521.884 804.52C522.95 805.533 524.284 806.04 525.884 806.04C526.87 806.04 527.804 805.893 528.684 805.6C529.59 805.28 530.51 804.813 531.444 804.2L533.364 806.92C532.377 807.747 531.217 808.387 529.884 808.84C528.55 809.293 527.15 809.52 525.684 809.52C522.457 809.52 519.95 808.52 518.164 806.52C516.377 804.493 515.484 801.8 515.484 798.44C515.484 796.333 515.87 794.44 516.644 792.76C517.417 791.053 518.537 789.72 520.004 788.76C521.47 787.8 523.177 787.32 525.124 787.32C527.924 787.32 530.137 788.267 531.764 790.16C533.417 792.027 534.244 794.6 534.244 797.88C534.244 798.68 534.204 799.347 534.124 799.88H520.124ZM525.164 790.64C523.724 790.64 522.55 791.16 521.644 792.2C520.737 793.24 520.217 794.787 520.084 796.84H529.884C529.83 794.84 529.404 793.307 528.604 792.24C527.804 791.173 526.657 790.64 525.164 790.64ZM430.666 853.84C432.346 853.84 434.08 853.24 435.866 852.04L437.906 854.92C436.973 855.72 435.853 856.36 434.546 856.84C433.24 857.293 431.893 857.52 430.506 857.52C427.28 857.52 424.76 856.533 422.946 854.56C421.133 852.56 420.226 849.893 420.226 846.56C420.226 844.4 420.64 842.48 421.466 840.8C422.293 839.093 423.48 837.76 425.026 836.8C426.6 835.813 428.453 835.32 430.586 835.32C433.386 835.32 435.826 836.173 437.906 837.88L435.826 840.68C434.12 839.507 432.4 838.92 430.666 838.92C428.906 838.92 427.52 839.56 426.506 840.84C425.493 842.093 424.986 844 424.986 846.56C424.986 849.067 425.493 850.907 426.506 852.08C427.52 853.253 428.906 853.84 430.666 853.84ZM452.931 835.32C455.971 835.32 458.317 836.32 459.971 838.32C461.624 840.293 462.451 842.987 462.451 846.4C462.451 849.813 461.611 852.52 459.931 854.52C458.251 856.52 455.904 857.52 452.891 857.52C449.851 857.52 447.491 856.547 445.811 854.6C444.157 852.627 443.331 849.907 443.331 846.44C443.331 843.08 444.171 840.387 445.851 838.36C447.557 836.333 449.917 835.32 452.931 835.32ZM452.931 838.8C451.304 838.8 450.077 839.427 449.251 840.68C448.451 841.933 448.051 843.853 448.051 846.44C448.051 849.053 448.451 850.987 449.251 852.24C450.051 853.467 451.264 854.08 452.891 854.08C454.517 854.08 455.731 853.453 456.531 852.2C457.331 850.947 457.731 849.013 457.731 846.4C457.731 843.813 457.331 841.907 456.531 840.68C455.731 839.427 454.531 838.8 452.931 838.8ZM468.435 835.88H472.315L472.635 838.64C473.515 837.573 474.542 836.76 475.715 836.2C476.915 835.613 478.168 835.32 479.475 835.32C481.422 835.32 482.888 835.867 483.875 836.96C484.862 838.053 485.355 839.6 485.355 841.6V857H480.875V843.84C480.875 842.533 480.795 841.533 480.635 840.84C480.502 840.12 480.222 839.6 479.795 839.28C479.368 838.933 478.728 838.76 477.875 838.76C476.915 838.76 475.995 839.053 475.115 839.64C474.262 840.227 473.528 840.96 472.915 841.84V857H468.435V835.88ZM510.059 855.88C509.259 856.387 508.326 856.787 507.259 857.08C506.193 857.373 505.073 857.52 503.899 857.52C501.499 857.52 499.646 856.907 498.339 855.68C497.033 854.427 496.379 852.733 496.379 850.6V839.16H491.699V835.88H496.379V831.16L500.859 830.64V835.88H508.019L507.499 839.16H500.859V850.56C500.859 851.707 501.153 852.56 501.739 853.12C502.326 853.653 503.259 853.92 504.539 853.92C505.953 853.92 507.259 853.587 508.459 852.92L510.059 855.88ZM520.124 847.88C520.257 849.933 520.844 851.48 521.884 852.52C522.95 853.533 524.284 854.04 525.884 854.04C526.87 854.04 527.804 853.893 528.684 853.6C529.59 853.28 530.51 852.813 531.444 852.2L533.364 854.92C532.377 855.747 531.217 856.387 529.884 856.84C528.55 857.293 527.15 857.52 525.684 857.52C522.457 857.52 519.95 856.52 518.164 854.52C516.377 852.493 515.484 849.8 515.484 846.44C515.484 844.333 515.87 842.44 516.644 840.76C517.417 839.053 518.537 837.72 520.004 836.76C521.47 835.8 523.177 835.32 525.124 835.32C527.924 835.32 530.137 836.267 531.764 838.16C533.417 840.027 534.244 842.6 534.244 845.88C534.244 846.68 534.204 847.347 534.124 847.88H520.124ZM525.164 838.64C523.724 838.64 522.55 839.16 521.644 840.2C520.737 841.24 520.217 842.787 520.084 844.84H529.884C529.83 842.84 529.404 841.307 528.604 840.24C527.804 839.173 526.657 838.64 525.164 838.64ZM540.388 835.88H544.268L544.588 838.64C545.468 837.573 546.495 836.76 547.668 836.2C548.868 835.613 550.121 835.32 551.428 835.32C553.375 835.32 554.841 835.867 555.828 836.96C556.815 838.053 557.308 839.6 557.308 841.6V857H552.828V843.84C552.828 842.533 552.748 841.533 552.588 840.84C552.455 840.12 552.175 839.6 551.748 839.28C551.321 838.933 550.681 838.76 549.828 838.76C548.868 838.76 547.948 839.053 547.068 839.64C546.215 840.227 545.481 840.96 544.868 841.84V857H540.388V835.88ZM582.013 855.88C581.213 856.387 580.279 856.787 579.213 857.08C578.146 857.373 577.026 857.52 575.853 857.52C573.453 857.52 571.599 856.907 570.293 855.68C568.986 854.427 568.333 852.733 568.333 850.6V839.16H563.653V835.88H568.333V831.16L572.813 830.64V835.88H579.973L579.453 839.16H572.813V850.56C572.813 851.707 573.106 852.56 573.693 853.12C574.279 853.653 575.213 853.92 576.493 853.92C577.906 853.92 579.213 853.587 580.413 852.92L582.013 855.88ZM430.786 883.32C435.906 883.32 438.466 887.013 438.466 894.4C438.466 897.733 437.76 900.427 436.346 902.48C434.933 904.507 432.92 905.52 430.306 905.52C428.093 905.52 426.306 904.747 424.946 903.2V913.12L420.466 913.64V883.88H424.346L424.626 886.6C425.426 885.533 426.346 884.72 427.386 884.16C428.453 883.6 429.586 883.32 430.786 883.32ZM429.546 886.76C428.613 886.76 427.76 887.04 426.986 887.6C426.213 888.16 425.533 888.893 424.946 889.8V899.68C425.986 901.253 427.373 902.04 429.106 902.04C430.653 902.04 431.813 901.427 432.586 900.2C433.36 898.973 433.746 897.053 433.746 894.44C433.746 891.747 433.4 889.8 432.706 888.6C432.013 887.373 430.96 886.76 429.546 886.76ZM448.931 898.64C448.931 899.867 449.171 900.76 449.651 901.32C450.157 901.853 450.917 902.12 451.931 902.12C452.891 902.12 453.811 901.84 454.691 901.28C455.597 900.72 456.317 900.013 456.851 899.16V883.88H461.331V905H457.451L457.171 902.28C456.424 903.32 455.451 904.12 454.251 904.68C453.051 905.24 451.811 905.52 450.531 905.52C448.504 905.52 446.984 904.973 445.971 903.88C444.957 902.787 444.451 901.227 444.451 899.2V883.88H448.931V898.64ZM472.915 886.4C473.635 885.413 474.488 884.653 475.475 884.12C476.488 883.587 477.568 883.32 478.715 883.32C481.408 883.32 483.395 884.293 484.675 886.24C485.955 888.187 486.595 890.907 486.595 894.4C486.595 897.707 485.848 900.387 484.355 902.44C482.888 904.493 480.822 905.52 478.155 905.52C475.808 905.52 473.968 904.653 472.635 902.92L472.395 905H468.435V875.4L472.915 874.88V886.4ZM477.075 902.12C478.622 902.12 479.795 901.493 480.595 900.24C481.422 898.96 481.835 897.027 481.835 894.44C481.835 891.773 481.462 889.827 480.715 888.6C479.995 887.373 478.915 886.76 477.475 886.76C476.568 886.76 475.715 887.04 474.915 887.6C474.142 888.16 473.475 888.893 472.915 889.8V899.68C473.982 901.307 475.368 902.12 477.075 902.12ZM501.699 899.24C501.699 901.027 502.766 901.92 504.899 901.92C505.966 901.92 507.086 901.68 508.259 901.2L509.379 904.32C507.913 905.12 506.099 905.52 503.939 905.52C501.833 905.52 500.179 904.933 498.979 903.76C497.806 902.56 497.219 900.92 497.219 898.84V878.68H490.859V875.4H501.699V899.24ZM524.844 873.52C525.697 873.52 526.39 873.8 526.924 874.36C527.484 874.893 527.764 875.56 527.764 876.36C527.764 877.16 527.484 877.827 526.924 878.36C526.39 878.893 525.697 879.16 524.844 879.16C523.964 879.16 523.257 878.893 522.724 878.36C522.19 877.827 521.924 877.16 521.924 876.36C521.924 875.533 522.19 874.853 522.724 874.32C523.284 873.787 523.99 873.52 524.844 873.52ZM527.924 901.72H533.684V905H517.164V901.72H523.444V887.16H517.364V883.88H527.924V901.72ZM548.068 902.12C549.481 902.12 550.588 901.867 551.388 901.36C552.215 900.853 552.628 900.16 552.628 899.28C552.628 898.667 552.508 898.173 552.268 897.8C552.028 897.4 551.548 897.04 550.828 896.72C550.108 896.373 549.028 896.013 547.588 895.64C545.268 895.053 543.521 894.307 542.348 893.4C541.201 892.467 540.628 891.133 540.628 889.4C540.628 887.56 541.388 886.093 542.908 885C544.428 883.88 546.481 883.32 549.068 883.32C552.188 883.32 554.868 884.133 557.108 885.76L555.188 888.6C553.295 887.347 551.295 886.72 549.188 886.72C546.521 886.72 545.188 887.493 545.188 889.04C545.188 889.573 545.335 890.013 545.628 890.36C545.948 890.707 546.481 891.04 547.228 891.36C547.975 891.653 549.081 892 550.548 892.4C552.841 893.04 554.548 893.827 555.668 894.76C556.815 895.693 557.388 897.093 557.388 898.96C557.388 901.12 556.495 902.76 554.708 903.88C552.921 904.973 550.708 905.52 548.068 905.52C544.575 905.52 541.681 904.533 539.388 902.56L541.748 899.84C542.628 900.533 543.601 901.093 544.668 901.52C545.761 901.92 546.895 902.12 548.068 902.12ZM568.853 886.48C569.706 885.44 570.693 884.653 571.813 884.12C572.959 883.587 574.159 883.32 575.413 883.32C577.359 883.32 578.826 883.867 579.813 884.96C580.799 886.027 581.293 887.573 581.293 889.6V905H576.813V890.28C576.813 889.027 576.573 888.133 576.093 887.6C575.613 887.04 574.839 886.76 573.773 886.76C572.839 886.76 571.933 887.067 571.053 887.68C570.199 888.267 569.466 889 568.853 889.88V905H564.373V875.44L568.853 874.96V886.48ZM592.077 895.88C592.21 897.933 592.797 899.48 593.837 900.52C594.904 901.533 596.237 902.04 597.837 902.04C598.824 902.04 599.757 901.893 600.637 901.6C601.544 901.28 602.464 900.813 603.397 900.2L605.317 902.92C604.33 903.747 603.17 904.387 601.837 904.84C600.504 905.293 599.104 905.52 597.637 905.52C594.41 905.52 591.904 904.52 590.117 902.52C588.33 900.493 587.437 897.8 587.437 894.44C587.437 892.333 587.824 890.44 588.597 888.76C589.37 887.053 590.49 885.72 591.957 884.76C593.424 883.8 595.13 883.32 597.077 883.32C599.877 883.32 602.09 884.267 603.717 886.16C605.37 888.027 606.197 890.6 606.197 893.88C606.197 894.68 606.157 895.347 606.077 895.88H592.077ZM597.117 886.64C595.677 886.64 594.504 887.16 593.597 888.2C592.69 889.24 592.17 890.787 592.037 892.84H601.837C601.784 890.84 601.357 889.307 600.557 888.24C599.757 887.173 598.61 886.64 597.117 886.64ZM629.221 875.4V905H625.261L624.941 902.4C624.248 903.413 623.395 904.187 622.381 904.72C621.368 905.253 620.248 905.52 619.021 905.52C616.381 905.52 614.395 904.533 613.061 902.56C611.728 900.587 611.061 897.88 611.061 894.44C611.061 892.28 611.395 890.36 612.061 888.68C612.755 887 613.728 885.693 614.981 884.76C616.235 883.8 617.715 883.32 619.421 883.32C621.581 883.32 623.355 884.093 624.741 885.64V874.88L629.221 875.4ZM620.581 886.76C619.035 886.76 617.848 887.4 617.021 888.68C616.221 889.933 615.821 891.853 615.821 894.44C615.821 899.56 617.288 902.12 620.221 902.12C621.981 902.12 623.488 901.107 624.741 899.08V889.12C623.648 887.547 622.261 886.76 620.581 886.76ZM653.966 999.88C653.166 1000.39 652.232 1000.79 651.166 1001.08C650.099 1001.37 648.979 1001.52 647.806 1001.52C645.406 1001.52 643.552 1000.91 642.246 999.68C640.939 998.427 640.286 996.733 640.286 994.6V983.16H635.606V979.88H640.286V975.16L644.766 974.64V979.88H651.926L651.406 983.16H644.766V994.56C644.766 995.707 645.059 996.56 645.646 997.12C646.232 997.653 647.166 997.92 648.446 997.92C649.859 997.92 651.166 997.587 652.366 996.92L653.966 999.88ZM676.47 995.84C676.47 996.64 676.59 997.24 676.83 997.64C677.07 998.013 677.483 998.293 678.07 998.48L677.03 1001.52C674.817 1001.25 673.363 1000.28 672.67 998.6C671.897 999.56 670.923 1000.29 669.75 1000.8C668.603 1001.28 667.337 1001.52 665.95 1001.52C663.817 1001.52 662.123 1000.92 660.87 999.72C659.617 998.52 658.99 996.933 658.99 994.96C658.99 992.747 659.857 991.04 661.59 989.84C663.35 988.64 665.83 988.04 669.03 988.04H672.03V986.68C672.03 985.347 671.63 984.373 670.83 983.76C670.03 983.147 668.87 982.84 667.35 982.84C666.603 982.84 665.737 982.933 664.75 983.12C663.763 983.307 662.763 983.573 661.75 983.92L660.63 980.76C663.163 979.8 665.63 979.32 668.03 979.32C670.83 979.32 672.937 979.933 674.35 981.16C675.763 982.387 676.47 984.133 676.47 986.4V995.84ZM667.27 998.24C668.203 998.24 669.097 998 669.95 997.52C670.83 997.04 671.523 996.373 672.03 995.52V990.84H669.55C667.523 990.84 666.043 991.187 665.11 991.88C664.177 992.547 663.71 993.52 663.71 994.8C663.71 995.92 664.003 996.773 664.59 997.36C665.203 997.947 666.097 998.24 667.27 998.24ZM688.894 1001H684.414V971.4L688.894 970.88V1001ZM694.374 989.32L703.774 1001H698.294L689.214 989.44L697.694 979.88H702.894L694.374 989.32ZM711.999 991.88C712.132 993.933 712.719 995.48 713.759 996.52C714.825 997.533 716.159 998.04 717.759 998.04C718.745 998.04 719.679 997.893 720.559 997.6C721.465 997.28 722.385 996.813 723.319 996.2L725.239 998.92C724.252 999.747 723.092 1000.39 721.759 1000.84C720.425 1001.29 719.025 1001.52 717.559 1001.52C714.332 1001.52 711.825 1000.52 710.039 998.52C708.252 996.493 707.359 993.8 707.359 990.44C707.359 988.333 707.745 986.44 708.519 984.76C709.292 983.053 710.412 981.72 711.879 980.76C713.345 979.8 715.052 979.32 716.999 979.32C719.799 979.32 722.012 980.267 723.639 982.16C725.292 984.027 726.119 986.6 726.119 989.88C726.119 990.68 726.079 991.347 725.999 991.88H711.999ZM717.039 982.64C715.599 982.64 714.425 983.16 713.519 984.2C712.612 985.24 712.092 986.787 711.959 988.84H721.759C721.705 986.84 721.279 985.307 720.479 984.24C719.679 983.173 718.532 982.64 717.039 982.64ZM476.875 1017.52C477.728 1017.52 478.422 1017.8 478.955 1018.36C479.515 1018.89 479.795 1019.56 479.795 1020.36C479.795 1021.16 479.515 1021.83 478.955 1022.36C478.422 1022.89 477.728 1023.16 476.875 1023.16C475.995 1023.16 475.288 1022.89 474.755 1022.36C474.222 1021.83 473.955 1021.16 473.955 1020.36C473.955 1019.53 474.222 1018.85 474.755 1018.32C475.315 1017.79 476.022 1017.52 476.875 1017.52ZM479.955 1045.72H485.715V1049H469.195V1045.72H475.475V1031.16H469.395V1027.88H479.955V1045.72ZM509.299 1019.4V1049H505.339L505.019 1046.4C504.326 1047.41 503.473 1048.19 502.459 1048.72C501.446 1049.25 500.326 1049.52 499.099 1049.52C496.459 1049.52 494.473 1048.53 493.139 1046.56C491.806 1044.59 491.139 1041.88 491.139 1038.44C491.139 1036.28 491.473 1034.36 492.139 1032.68C492.833 1031 493.806 1029.69 495.059 1028.76C496.313 1027.8 497.793 1027.32 499.499 1027.32C501.659 1027.32 503.433 1028.09 504.819 1029.64V1018.88L509.299 1019.4ZM500.659 1030.76C499.113 1030.76 497.926 1031.4 497.099 1032.68C496.299 1033.93 495.899 1035.85 495.899 1038.44C495.899 1043.56 497.366 1046.12 500.299 1046.12C502.059 1046.12 503.566 1045.11 504.819 1043.08V1033.12C503.726 1031.55 502.339 1030.76 500.659 1030.76ZM486.075 1095.88C485.275 1096.39 484.342 1096.79 483.275 1097.08C482.208 1097.37 481.088 1097.52 479.915 1097.52C477.515 1097.52 475.662 1096.91 474.355 1095.68C473.048 1094.43 472.395 1092.73 472.395 1090.6V1079.16H467.715V1075.88H472.395V1071.16L476.875 1070.64V1075.88H484.035L483.515 1079.16H476.875V1090.56C476.875 1091.71 477.168 1092.56 477.755 1093.12C478.342 1093.65 479.275 1093.92 480.555 1093.92C481.968 1093.92 483.275 1093.59 484.475 1092.92L486.075 1095.88ZM496.139 1087.88C496.273 1089.93 496.859 1091.48 497.899 1092.52C498.966 1093.53 500.299 1094.04 501.899 1094.04C502.886 1094.04 503.819 1093.89 504.699 1093.6C505.606 1093.28 506.526 1092.81 507.459 1092.2L509.379 1094.92C508.393 1095.75 507.233 1096.39 505.899 1096.84C504.566 1097.29 503.166 1097.52 501.699 1097.52C498.473 1097.52 495.966 1096.52 494.179 1094.52C492.393 1092.49 491.499 1089.8 491.499 1086.44C491.499 1084.33 491.886 1082.44 492.659 1080.76C493.433 1079.05 494.553 1077.72 496.019 1076.76C497.486 1075.8 499.193 1075.32 501.139 1075.32C503.939 1075.32 506.153 1076.27 507.779 1078.16C509.433 1080.03 510.259 1082.6 510.259 1085.88C510.259 1086.68 510.219 1087.35 510.139 1087.88H496.139ZM501.179 1078.64C499.739 1078.64 498.566 1079.16 497.659 1080.2C496.753 1081.24 496.233 1082.79 496.099 1084.84H505.899C505.846 1082.84 505.419 1081.31 504.619 1080.24C503.819 1079.17 502.673 1078.64 501.179 1078.64ZM514.564 1097L522.164 1085.88L515.404 1075.88H520.564L524.884 1083.32L529.204 1075.88H534.124L527.524 1085.68L535.124 1097H529.884L524.684 1088.36L519.524 1097H514.564ZM558.028 1095.88C557.228 1096.39 556.295 1096.79 555.228 1097.08C554.161 1097.37 553.041 1097.52 551.868 1097.52C549.468 1097.52 547.615 1096.91 546.308 1095.68C545.001 1094.43 544.348 1092.73 544.348 1090.6V1079.16H539.668V1075.88H544.348V1071.16L548.828 1070.64V1075.88H555.988L555.468 1079.16H548.828V1090.56C548.828 1091.71 549.121 1092.56 549.708 1093.12C550.295 1093.65 551.228 1093.92 552.508 1093.92C553.921 1093.92 555.228 1093.59 556.428 1092.92L558.028 1095.88Z" fill="#1D75B3"/>
<path d="M629.981 277.48V281H613.301V277.48H620.021V258L613.941 261.72L612.021 258.6L620.501 253.4H624.461V277.48H629.981ZM644.766 252.84C647.832 252.84 650.166 254.08 651.766 256.56C653.366 259.013 654.166 262.547 654.166 267.16C654.166 271.773 653.366 275.32 651.766 277.8C650.166 280.28 647.832 281.52 644.766 281.52C641.699 281.52 639.366 280.28 637.766 277.8C636.166 275.32 635.366 271.773 635.366 267.16C635.366 262.547 636.166 259.013 637.766 256.56C639.366 254.08 641.699 252.84 644.766 252.84ZM644.766 256.28C643.166 256.28 641.952 257.147 641.126 258.88C640.299 260.613 639.886 263.373 639.886 267.16C639.886 271 640.299 273.787 641.126 275.52C641.952 277.253 643.166 278.12 644.766 278.12C646.366 278.12 647.579 277.253 648.406 275.52C649.232 273.787 649.646 271 649.646 267.16C649.646 263.347 649.232 260.587 648.406 258.88C647.579 257.147 646.366 256.28 644.766 256.28ZM644.766 264.6C645.512 264.6 646.139 264.853 646.646 265.36C647.152 265.867 647.406 266.48 647.406 267.2C647.406 267.947 647.152 268.573 646.646 269.08C646.139 269.587 645.512 269.84 644.766 269.84C644.019 269.84 643.392 269.587 642.886 269.08C642.406 268.573 642.166 267.947 642.166 267.2C642.166 266.48 642.406 265.867 642.886 265.36C643.392 264.853 644.019 264.6 644.766 264.6ZM677.95 709.48V713H661.27V709.48H667.99V690L661.91 693.72L659.99 690.6L668.47 685.4H672.43V709.48H677.95ZM692.734 684.84C695.801 684.84 698.134 686.08 699.734 688.56C701.334 691.013 702.134 694.547 702.134 699.16C702.134 703.773 701.334 707.32 699.734 709.8C698.134 712.28 695.801 713.52 692.734 713.52C689.668 713.52 687.334 712.28 685.734 709.8C684.134 707.32 683.334 703.773 683.334 699.16C683.334 694.547 684.134 691.013 685.734 688.56C687.334 686.08 689.668 684.84 692.734 684.84ZM692.734 688.28C691.134 688.28 689.921 689.147 689.094 690.88C688.268 692.613 687.854 695.373 687.854 699.16C687.854 703 688.268 705.787 689.094 707.52C689.921 709.253 691.134 710.12 692.734 710.12C694.334 710.12 695.548 709.253 696.374 707.52C697.201 705.787 697.614 703 697.614 699.16C697.614 695.347 697.201 692.587 696.374 690.88C695.548 689.147 694.334 688.28 692.734 688.28ZM692.734 696.6C693.481 696.6 694.108 696.853 694.614 697.36C695.121 697.867 695.374 698.48 695.374 699.2C695.374 699.947 695.121 700.573 694.614 701.08C694.108 701.587 693.481 701.84 692.734 701.84C691.988 701.84 691.361 701.587 690.854 701.08C690.374 700.573 690.134 699.947 690.134 699.2C690.134 698.48 690.374 697.867 690.854 697.36C691.361 696.853 691.988 696.6 692.734 696.6ZM797.872 997.48V1001H781.192V997.48H787.912V978L781.832 981.72L779.912 978.6L788.392 973.4H792.352V997.48H797.872ZM812.656 972.84C815.723 972.84 818.056 974.08 819.656 976.56C821.256 979.013 822.056 982.547 822.056 987.16C822.056 991.773 821.256 995.32 819.656 997.8C818.056 1000.28 815.723 1001.52 812.656 1001.52C809.59 1001.52 807.256 1000.28 805.656 997.8C804.056 995.32 803.256 991.773 803.256 987.16C803.256 982.547 804.056 979.013 805.656 976.56C807.256 974.08 809.59 972.84 812.656 972.84ZM812.656 976.28C811.056 976.28 809.843 977.147 809.016 978.88C808.19 980.613 807.776 983.373 807.776 987.16C807.776 991 808.19 993.787 809.016 995.52C809.843 997.253 811.056 998.12 812.656 998.12C814.256 998.12 815.47 997.253 816.296 995.52C817.123 993.787 817.536 991 817.536 987.16C817.536 983.347 817.123 980.587 816.296 978.88C815.47 977.147 814.256 976.28 812.656 976.28ZM812.656 984.6C813.403 984.6 814.03 984.853 814.536 985.36C815.043 985.867 815.296 986.48 815.296 987.2C815.296 987.947 815.043 988.573 814.536 989.08C814.03 989.587 813.403 989.84 812.656 989.84C811.91 989.84 811.283 989.587 810.776 989.08C810.296 988.573 810.056 987.947 810.056 987.2C810.056 986.48 810.296 985.867 810.776 985.36C811.283 984.853 811.91 984.6 812.656 984.6Z" fill="#75438A"/>
<defs>
<filter id="filter0_d" x="140" y="94" width="1025" height="1318" filterUnits="userSpaceOnUse" color-interpolation-filters="sRGB">
<feFlood flood-opacity="0" result="BackgroundImageFix"/>
<feColorMatrix in="SourceAlpha" type="matrix" values="0 0 0 0 0 0 0 0 0 0 0 0 0 0 0 0 0 0 127 0"/>
<feOffset dy="5"/>
<feGaussianBlur stdDeviation="10"/>
<feColorMatrix type="matrix" values="0 0 0 0 0 0 0 0 0 0 0 0 0 0 0 0 0 0 0.25 0"/>
<feBlend mode="normal" in2="BackgroundImageFix" result="effect1_dropShadow"/>
<feBlend mode="normal" in="SourceGraphic" in2="effect1_dropShadow" result="shape"/>
</filter>
</defs>
</svg>
