<svg width="2743" height="1546" viewBox="0 0 2743 1546" fill="none" xmlns="http://www.w3.org/2000/svg">
<g filter="url(#filter0_d)">
<rect x="830" y="271" width="812" height="1009" rx="30" fill="white"/>
</g>
<path d="M933.28 371.84C931.76 371.84 930.6 372.067 929.8 372.52C929 372.947 928.653 373.693 928.76 374.76L929.48 382.12C929.507 382.36 929.52 382.693 929.52 383.12C929.52 384.587 929.12 385.707 928.32 386.48C927.547 387.227 926.387 387.733 924.84 388C926.44 388.267 927.613 388.76 928.36 389.48C929.133 390.2 929.52 391.307 929.52 392.8C929.52 393.28 929.507 393.64 929.48 393.88L928.76 401.24C928.653 402.333 929 403.093 929.8 403.52C930.6 403.947 931.76 404.16 933.28 404.16V407.48C930.48 407.48 928.32 407.04 926.8 406.16C925.307 405.307 924.56 403.84 924.56 401.76C924.56 401.36 924.573 401.053 924.6 400.84L925.36 393.92C925.387 393.787 925.4 393.573 925.4 393.28C925.4 392.053 924.947 391.173 924.04 390.64C923.133 390.08 921.627 389.8 919.52 389.8V386.2C921.627 386.2 923.133 385.933 924.04 385.4C924.947 384.84 925.4 383.947 925.4 382.72C925.4 382.453 925.387 382.253 925.36 382.12L924.6 375.2C924.573 374.987 924.56 374.68 924.56 374.28C924.56 372.2 925.307 370.72 926.8 369.84C928.32 368.96 930.48 368.52 933.28 368.52V371.84ZM1092.13 436C1092.13 438.533 1092.41 440.76 1092.97 442.68C1093.53 444.6 1094.38 446.4 1095.53 448.08C1096.7 449.76 1098.29 451.56 1100.29 453.48L1097.85 455.88C1094.38 453 1091.8 450.04 1090.09 447C1088.38 443.933 1087.53 440.267 1087.53 436C1087.53 431.733 1088.38 428.08 1090.09 425.04C1091.8 421.973 1094.38 419 1097.85 416.12L1100.29 418.52C1098.32 420.413 1096.74 422.2 1095.57 423.88C1094.42 425.533 1093.56 427.333 1092.97 429.28C1092.41 431.227 1092.13 433.467 1092.13 436ZM1211.21 432.72C1211.21 431.733 1211.56 430.893 1212.25 430.2C1212.95 429.48 1213.79 429.12 1214.77 429.12C1215.79 429.12 1216.64 429.48 1217.33 430.2C1218.03 430.893 1218.37 431.733 1218.37 432.72C1218.37 433.707 1218.03 434.56 1217.33 435.28C1216.64 435.973 1215.79 436.32 1214.77 436.32C1213.79 436.32 1212.95 435.973 1212.25 435.28C1211.56 434.56 1211.21 433.707 1211.21 432.72ZM1211.21 446.92C1211.21 445.933 1211.56 445.093 1212.25 444.4C1212.95 443.707 1213.79 443.36 1214.77 443.36C1215.81 443.36 1216.67 443.707 1217.33 444.4C1218.03 445.093 1218.37 445.933 1218.37 446.92C1218.37 447.933 1218.03 448.787 1217.33 449.48C1216.67 450.173 1215.81 450.52 1214.77 450.52C1213.79 450.52 1212.95 450.173 1212.25 449.48C1211.56 448.787 1211.21 447.933 1211.21 446.92ZM1313.51 436C1313.51 433.467 1313.22 431.227 1312.63 429.28C1312.07 427.333 1311.2 425.533 1310.03 423.88C1308.88 422.2 1307.32 420.413 1305.35 418.52L1307.79 416.12C1311.26 419 1313.84 421.973 1315.55 425.04C1317.26 428.08 1318.11 431.733 1318.11 436C1318.11 440.267 1317.26 443.933 1315.55 447C1313.84 450.04 1311.26 453 1307.79 455.88L1305.35 453.48C1307.35 451.56 1308.92 449.76 1310.07 448.08C1311.24 446.4 1312.11 444.6 1312.67 442.68C1313.23 440.76 1313.51 438.533 1313.51 436ZM1365 419.84C1363.48 419.84 1362.32 420.067 1361.52 420.52C1360.72 420.947 1360.37 421.693 1360.48 422.76L1361.2 430.12C1361.23 430.36 1361.24 430.693 1361.24 431.12C1361.24 432.587 1360.84 433.707 1360.04 434.48C1359.27 435.227 1358.11 435.733 1356.56 436C1358.16 436.267 1359.33 436.76 1360.08 437.48C1360.85 438.2 1361.24 439.307 1361.24 440.8C1361.24 441.28 1361.23 441.64 1361.2 441.88L1360.48 449.24C1360.37 450.333 1360.72 451.093 1361.52 451.52C1362.32 451.947 1363.48 452.16 1365 452.16V455.48C1362.2 455.48 1360.04 455.04 1358.52 454.16C1357.03 453.307 1356.28 451.84 1356.28 449.76C1356.28 449.36 1356.29 449.053 1356.32 448.84L1357.08 441.92C1357.11 441.787 1357.12 441.573 1357.12 441.28C1357.12 440.053 1356.67 439.173 1355.76 438.64C1354.85 438.08 1353.35 437.8 1351.24 437.8V434.2C1353.35 434.2 1354.85 433.933 1355.76 433.4C1356.67 432.84 1357.12 431.947 1357.12 430.72C1357.12 430.453 1357.11 430.253 1357.08 430.12L1356.32 423.2C1356.29 422.987 1356.28 422.68 1356.28 422.28C1356.28 420.2 1357.03 418.72 1358.52 417.84C1360.04 416.96 1362.2 416.52 1365 416.52V419.84ZM1140.1 628C1140.1 630.533 1140.38 632.76 1140.94 634.68C1141.5 636.6 1142.35 638.4 1143.5 640.08C1144.67 641.76 1146.26 643.56 1148.26 645.48L1145.82 647.88C1142.35 645 1139.77 642.04 1138.06 639C1136.35 635.933 1135.5 632.267 1135.5 628C1135.5 623.733 1136.35 620.08 1138.06 617.04C1139.77 613.973 1142.35 611 1145.82 608.12L1148.26 610.52C1146.29 612.413 1144.71 614.2 1143.54 615.88C1142.39 617.533 1141.53 619.333 1140.94 621.28C1140.38 623.227 1140.1 625.467 1140.1 628ZM1259.18 624.72C1259.18 623.733 1259.53 622.893 1260.22 622.2C1260.91 621.48 1261.75 621.12 1262.74 621.12C1263.75 621.12 1264.61 621.48 1265.3 622.2C1265.99 622.893 1266.34 623.733 1266.34 624.72C1266.34 625.707 1265.99 626.56 1265.3 627.28C1264.61 627.973 1263.75 628.32 1262.74 628.32C1261.75 628.32 1260.91 627.973 1260.22 627.28C1259.53 626.56 1259.18 625.707 1259.18 624.72ZM1259.18 638.92C1259.18 637.933 1259.53 637.093 1260.22 636.4C1260.91 635.707 1261.75 635.36 1262.74 635.36C1263.78 635.36 1264.63 635.707 1265.3 636.4C1265.99 637.093 1266.34 637.933 1266.34 638.92C1266.34 639.933 1265.99 640.787 1265.3 641.48C1264.63 642.173 1263.78 642.52 1262.74 642.52C1261.75 642.52 1260.91 642.173 1260.22 641.48C1259.53 640.787 1259.18 639.933 1259.18 638.92ZM1361.48 628C1361.48 625.467 1361.19 623.227 1360.6 621.28C1360.04 619.333 1359.17 617.533 1358 615.88C1356.85 614.2 1355.29 612.413 1353.32 610.52L1355.76 608.12C1359.23 611 1361.81 613.973 1363.52 617.04C1365.23 620.08 1366.08 623.733 1366.08 628C1366.08 632.267 1365.23 635.933 1363.52 639C1361.81 642.04 1359.23 645 1355.76 647.88L1353.32 645.48C1355.32 643.56 1356.89 641.76 1358.04 640.08C1359.21 638.4 1360.08 636.6 1360.64 634.68C1361.2 632.76 1361.48 630.533 1361.48 628ZM1412.97 611.84C1411.45 611.84 1410.29 612.067 1409.49 612.52C1408.69 612.947 1408.34 613.693 1408.45 614.76L1409.17 622.12C1409.19 622.36 1409.21 622.693 1409.21 623.12C1409.21 624.587 1408.81 625.707 1408.01 626.48C1407.23 627.227 1406.07 627.733 1404.53 628C1406.13 628.267 1407.3 628.76 1408.05 629.48C1408.82 630.2 1409.21 631.307 1409.21 632.8C1409.21 633.28 1409.19 633.64 1409.17 633.88L1408.45 641.24C1408.34 642.333 1408.69 643.093 1409.49 643.52C1410.29 643.947 1411.45 644.16 1412.97 644.16V647.48C1410.17 647.48 1408.01 647.04 1406.49 646.16C1404.99 645.307 1404.25 643.84 1404.25 641.76C1404.25 641.36 1404.26 641.053 1404.29 640.84L1405.05 633.92C1405.07 633.787 1405.09 633.573 1405.09 633.28C1405.09 632.053 1404.63 631.173 1403.73 630.64C1402.82 630.08 1401.31 629.8 1399.21 629.8V626.2C1401.31 626.2 1402.82 625.933 1403.73 625.4C1404.63 624.84 1405.09 623.947 1405.09 622.72C1405.09 622.453 1405.07 622.253 1405.05 622.12L1404.29 615.2C1404.26 614.987 1404.25 614.68 1404.25 614.28C1404.25 612.2 1404.99 610.72 1406.49 609.84C1408.01 608.96 1410.17 608.52 1412.97 608.52V611.84ZM1260.02 868C1260.02 870.533 1260.3 872.76 1260.86 874.68C1261.42 876.6 1262.27 878.4 1263.42 880.08C1264.59 881.76 1266.18 883.56 1268.18 885.48L1265.74 887.88C1262.27 885 1259.69 882.04 1257.98 879C1256.27 875.933 1255.42 872.267 1255.42 868C1255.42 863.733 1256.27 860.08 1257.98 857.04C1259.69 853.973 1262.27 851 1265.74 848.12L1268.18 850.52C1266.21 852.413 1264.63 854.2 1263.46 855.88C1262.31 857.533 1261.45 859.333 1260.86 861.28C1260.3 863.227 1260.02 865.467 1260.02 868ZM1379.1 864.72C1379.1 863.733 1379.45 862.893 1380.14 862.2C1380.84 861.48 1381.68 861.12 1382.66 861.12C1383.68 861.12 1384.53 861.48 1385.22 862.2C1385.92 862.893 1386.26 863.733 1386.26 864.72C1386.26 865.707 1385.92 866.56 1385.22 867.28C1384.53 867.973 1383.68 868.32 1382.66 868.32C1381.68 868.32 1380.84 867.973 1380.14 867.28C1379.45 866.56 1379.1 865.707 1379.1 864.72ZM1379.1 878.92C1379.1 877.933 1379.45 877.093 1380.14 876.4C1380.84 875.707 1381.68 875.36 1382.66 875.36C1383.7 875.36 1384.56 875.707 1385.22 876.4C1385.92 877.093 1386.26 877.933 1386.26 878.92C1386.26 879.933 1385.92 880.787 1385.22 881.48C1384.56 882.173 1383.7 882.52 1382.66 882.52C1381.68 882.52 1380.84 882.173 1380.14 881.48C1379.45 880.787 1379.1 879.933 1379.1 878.92ZM1481.4 868C1481.4 865.467 1481.11 863.227 1480.52 861.28C1479.96 859.333 1479.09 857.533 1477.92 855.88C1476.77 854.2 1475.21 852.413 1473.24 850.52L1475.68 848.12C1479.15 851 1481.73 853.973 1483.44 857.04C1485.15 860.08 1486 863.733 1486 868C1486 872.267 1485.15 875.933 1483.44 879C1481.73 882.04 1479.15 885 1475.68 887.88L1473.24 885.48C1475.24 883.56 1476.81 881.76 1477.96 880.08C1479.13 878.4 1480 876.6 1480.56 874.68C1481.12 872.76 1481.4 870.533 1481.4 868ZM1532.89 851.84C1531.37 851.84 1530.21 852.067 1529.41 852.52C1528.61 852.947 1528.26 853.693 1528.37 854.76L1529.09 862.12C1529.12 862.36 1529.13 862.693 1529.13 863.12C1529.13 864.587 1528.73 865.707 1527.93 866.48C1527.16 867.227 1526 867.733 1524.45 868C1526.05 868.267 1527.22 868.76 1527.97 869.48C1528.74 870.2 1529.13 871.307 1529.13 872.8C1529.13 873.28 1529.12 873.64 1529.09 873.88L1528.37 881.24C1528.26 882.333 1528.61 883.093 1529.41 883.52C1530.21 883.947 1531.37 884.16 1532.89 884.16V887.48C1530.09 887.48 1527.93 887.04 1526.41 886.16C1524.92 885.307 1524.17 883.84 1524.17 881.76C1524.17 881.36 1524.18 881.053 1524.21 880.84L1524.97 873.92C1525 873.787 1525.01 873.573 1525.01 873.28C1525.01 872.053 1524.56 871.173 1523.65 870.64C1522.74 870.08 1521.24 869.8 1519.13 869.8V866.2C1521.24 866.2 1522.74 865.933 1523.65 865.4C1524.56 864.84 1525.01 863.947 1525.01 862.72C1525.01 862.453 1525 862.253 1524.97 862.12L1524.21 855.2C1524.18 854.987 1524.17 854.68 1524.17 854.28C1524.17 852.2 1524.92 850.72 1526.41 849.84C1527.93 848.96 1530.09 848.52 1532.89 848.52V851.84ZM1064.63 992.52C1067.43 992.52 1069.57 992.96 1071.07 993.84C1072.59 994.693 1073.35 996.16 1073.35 998.24C1073.35 998.64 1073.33 998.947 1073.31 999.16L1072.55 1006.12L1072.51 1006.68C1072.51 1007.91 1072.97 1008.8 1073.91 1009.36C1074.87 1009.92 1076.36 1010.2 1078.39 1010.2V1013.8C1076.36 1013.8 1074.87 1014.09 1073.91 1014.68C1072.97 1015.24 1072.51 1016.13 1072.51 1017.36L1072.55 1017.92L1073.31 1024.8C1073.33 1025.01 1073.35 1025.32 1073.35 1025.72C1073.35 1027.8 1072.59 1029.28 1071.07 1030.16C1069.57 1031.04 1067.43 1031.48 1064.63 1031.48V1028.16C1066.15 1028.16 1067.31 1027.95 1068.11 1027.52C1068.91 1027.09 1069.25 1026.33 1069.15 1025.24L1068.43 1017.88C1068.4 1017.64 1068.39 1017.29 1068.39 1016.84C1068.39 1015.35 1068.79 1014.24 1069.59 1013.52C1070.39 1012.77 1071.64 1012.28 1073.35 1012.04C1071.67 1011.75 1070.41 1011.23 1069.59 1010.48C1068.79 1009.73 1068.39 1008.61 1068.39 1007.12C1068.39 1006.69 1068.4 1006.36 1068.43 1006.12L1069.15 998.76C1069.25 997.693 1068.89 996.947 1068.07 996.52C1067.27 996.067 1066.12 995.84 1064.63 995.84V992.52ZM1016.66 1040.52C1019.46 1040.52 1021.6 1040.96 1023.1 1041.84C1024.62 1042.69 1025.38 1044.16 1025.38 1046.24C1025.38 1046.64 1025.36 1046.95 1025.34 1047.16L1024.58 1054.12L1024.54 1054.68C1024.54 1055.91 1025 1056.8 1025.94 1057.36C1026.9 1057.92 1028.39 1058.2 1030.42 1058.2V1061.8C1028.39 1061.8 1026.9 1062.09 1025.94 1062.68C1025 1063.24 1024.54 1064.13 1024.54 1065.36L1024.58 1065.92L1025.34 1072.8C1025.36 1073.01 1025.38 1073.32 1025.38 1073.72C1025.38 1075.8 1024.62 1077.28 1023.1 1078.16C1021.6 1079.04 1019.46 1079.48 1016.66 1079.48V1076.16C1018.18 1076.16 1019.34 1075.95 1020.14 1075.52C1020.94 1075.09 1021.28 1074.33 1021.18 1073.24L1020.46 1065.88C1020.43 1065.64 1020.42 1065.29 1020.42 1064.84C1020.42 1063.35 1020.82 1062.24 1021.62 1061.52C1022.42 1060.77 1023.67 1060.28 1025.38 1060.04C1023.7 1059.75 1022.44 1059.23 1021.62 1058.48C1020.82 1057.73 1020.42 1056.61 1020.42 1055.12C1020.42 1054.69 1020.43 1054.36 1020.46 1054.12L1021.18 1046.76C1021.28 1045.69 1020.92 1044.95 1020.1 1044.52C1019.3 1044.07 1018.15 1043.84 1016.66 1043.84V1040.52ZM968.689 1088.52C971.489 1088.52 973.635 1088.96 975.129 1089.84C976.649 1090.69 977.409 1092.16 977.409 1094.24C977.409 1094.64 977.395 1094.95 977.369 1095.16L976.609 1102.12L976.569 1102.68C976.569 1103.91 977.035 1104.8 977.969 1105.36C978.929 1105.92 980.422 1106.2 982.449 1106.2V1109.8C980.422 1109.8 978.929 1110.09 977.969 1110.68C977.035 1111.24 976.569 1112.13 976.569 1113.36L976.609 1113.92L977.369 1120.8C977.395 1121.01 977.409 1121.32 977.409 1121.72C977.409 1123.8 976.649 1125.28 975.129 1126.16C973.635 1127.04 971.489 1127.48 968.689 1127.48V1124.16C970.209 1124.16 971.369 1123.95 972.169 1123.52C972.969 1123.09 973.315 1122.33 973.209 1121.24L972.489 1113.88C972.462 1113.64 972.449 1113.29 972.449 1112.84C972.449 1111.35 972.849 1110.24 973.649 1109.52C974.449 1108.77 975.702 1108.28 977.409 1108.04C975.729 1107.75 974.475 1107.23 973.649 1106.48C972.849 1105.73 972.449 1104.61 972.449 1103.12C972.449 1102.69 972.462 1102.36 972.489 1102.12L973.209 1094.76C973.315 1093.69 972.955 1092.95 972.129 1092.52C971.329 1092.07 970.182 1091.84 968.689 1091.84V1088.52ZM920.72 1136.52C923.52 1136.52 925.667 1136.96 927.16 1137.84C928.68 1138.69 929.44 1140.16 929.44 1142.24C929.44 1142.64 929.427 1142.95 929.4 1143.16L928.64 1150.12L928.6 1150.68C928.6 1151.91 929.067 1152.8 930 1153.36C930.96 1153.92 932.453 1154.2 934.48 1154.2V1157.8C932.453 1157.8 930.96 1158.09 930 1158.68C929.067 1159.24 928.6 1160.13 928.6 1161.36L928.64 1161.92L929.4 1168.8C929.427 1169.01 929.44 1169.32 929.44 1169.72C929.44 1171.8 928.68 1173.28 927.16 1174.16C925.667 1175.04 923.52 1175.48 920.72 1175.48V1172.16C922.24 1172.16 923.4 1171.95 924.2 1171.52C925 1171.09 925.347 1170.33 925.24 1169.24L924.52 1161.88C924.493 1161.64 924.48 1161.29 924.48 1160.84C924.48 1159.35 924.88 1158.24 925.68 1157.52C926.48 1156.77 927.733 1156.28 929.44 1156.04C927.76 1155.75 926.507 1155.23 925.68 1154.48C924.88 1153.73 924.48 1152.61 924.48 1151.12C924.48 1150.69 924.493 1150.36 924.52 1150.12L925.24 1142.76C925.347 1141.69 924.987 1140.95 924.16 1140.52C923.36 1140.07 922.213 1139.84 920.72 1139.84V1136.52Z" fill="#2E383C"/>
<path d="M971.009 443.64C971.009 444.867 971.249 445.76 971.729 446.32C972.235 446.853 972.995 447.12 974.009 447.12C974.969 447.12 975.889 446.84 976.769 446.28C977.675 445.72 978.395 445.013 978.929 444.16V428.88H983.409V450H979.529L979.249 447.28C978.502 448.32 977.529 449.12 976.329 449.68C975.129 450.24 973.889 450.52 972.609 450.52C970.582 450.52 969.062 449.973 968.049 448.88C967.035 447.787 966.529 446.227 966.529 444.2V428.88H971.009V443.64ZM998.193 447.12C999.606 447.12 1000.71 446.867 1001.51 446.36C1002.34 445.853 1002.75 445.16 1002.75 444.28C1002.75 443.667 1002.63 443.173 1002.39 442.8C1002.15 442.4 1001.67 442.04 1000.95 441.72C1000.23 441.373 999.153 441.013 997.713 440.64C995.393 440.053 993.646 439.307 992.473 438.4C991.326 437.467 990.753 436.133 990.753 434.4C990.753 432.56 991.513 431.093 993.033 430C994.553 428.88 996.606 428.32 999.193 428.32C1002.31 428.32 1004.99 429.133 1007.23 430.76L1005.31 433.6C1003.42 432.347 1001.42 431.72 999.313 431.72C996.646 431.72 995.313 432.493 995.313 434.04C995.313 434.573 995.46 435.013 995.753 435.36C996.073 435.707 996.606 436.04 997.353 436.36C998.1 436.653 999.206 437 1000.67 437.4C1002.97 438.04 1004.67 438.827 1005.79 439.76C1006.94 440.693 1007.51 442.093 1007.51 443.96C1007.51 446.12 1006.62 447.76 1004.83 448.88C1003.05 449.973 1000.83 450.52 998.193 450.52C994.7 450.52 991.806 449.533 989.513 447.56L991.873 444.84C992.753 445.533 993.726 446.093 994.793 446.52C995.886 446.92 997.02 447.12 998.193 447.12ZM1018.22 440.88C1018.35 442.933 1018.94 444.48 1019.98 445.52C1021.04 446.533 1022.38 447.04 1023.98 447.04C1024.96 447.04 1025.9 446.893 1026.78 446.6C1027.68 446.28 1028.6 445.813 1029.54 445.2L1031.46 447.92C1030.47 448.747 1029.31 449.387 1027.98 449.84C1026.64 450.293 1025.24 450.52 1023.78 450.52C1020.55 450.52 1018.04 449.52 1016.26 447.52C1014.47 445.493 1013.58 442.8 1013.58 439.44C1013.58 437.333 1013.96 435.44 1014.74 433.76C1015.51 432.053 1016.63 430.72 1018.1 429.76C1019.56 428.8 1021.27 428.32 1023.22 428.32C1026.02 428.32 1028.23 429.267 1029.86 431.16C1031.51 433.027 1032.34 435.6 1032.34 438.88C1032.34 439.68 1032.3 440.347 1032.22 440.88H1018.22ZM1023.26 431.64C1021.82 431.64 1020.64 432.16 1019.74 433.2C1018.83 434.24 1018.31 435.787 1018.18 437.84H1027.98C1027.92 435.84 1027.5 434.307 1026.7 433.24C1025.9 432.173 1024.75 431.64 1023.26 431.64ZM1053.44 428.36C1054.54 428.36 1055.6 428.533 1056.64 428.88L1055.88 436.68H1052.68V432.36C1051.22 432.387 1049.94 432.973 1048.84 434.12C1047.75 435.267 1046.9 436.88 1046.28 438.96V446.8H1050.52V450H1038.68V446.8H1041.8V432.08H1038.68V428.88H1045.2L1046 433.76C1046.83 431.947 1047.83 430.6 1049 429.72C1050.2 428.813 1051.68 428.36 1053.44 428.36ZM1070.15 447.12C1071.56 447.12 1072.67 446.867 1073.47 446.36C1074.29 445.853 1074.71 445.16 1074.71 444.28C1074.71 443.667 1074.59 443.173 1074.35 442.8C1074.11 442.4 1073.63 442.04 1072.91 441.72C1072.19 441.373 1071.11 441.013 1069.67 440.64C1067.35 440.053 1065.6 439.307 1064.43 438.4C1063.28 437.467 1062.71 436.133 1062.71 434.4C1062.71 432.56 1063.47 431.093 1064.99 430C1066.51 428.88 1068.56 428.32 1071.15 428.32C1074.27 428.32 1076.95 429.133 1079.19 430.76L1077.27 433.6C1075.37 432.347 1073.37 431.72 1071.27 431.72C1068.6 431.72 1067.27 432.493 1067.27 434.04C1067.27 434.573 1067.41 435.013 1067.71 435.36C1068.03 435.707 1068.56 436.04 1069.31 436.36C1070.05 436.653 1071.16 437 1072.63 437.4C1074.92 438.04 1076.63 438.827 1077.75 439.76C1078.89 440.693 1079.47 442.093 1079.47 443.96C1079.47 446.12 1078.57 447.76 1076.79 448.88C1075 449.973 1072.79 450.52 1070.15 450.52C1066.65 450.52 1063.76 449.533 1061.47 447.56L1063.83 444.84C1064.71 445.533 1065.68 446.093 1066.75 446.52C1067.84 446.92 1068.97 447.12 1070.15 447.12ZM1024.82 620.32C1029.94 620.32 1032.5 624.013 1032.5 631.4C1032.5 634.733 1031.79 637.427 1030.38 639.48C1028.96 641.507 1026.95 642.52 1024.34 642.52C1022.12 642.52 1020.34 641.747 1018.98 640.2V650.12L1014.5 650.64V620.88H1018.38L1018.66 623.6C1019.46 622.533 1020.38 621.72 1021.42 621.16C1022.48 620.6 1023.62 620.32 1024.82 620.32ZM1023.58 623.76C1022.64 623.76 1021.79 624.04 1021.02 624.6C1020.24 625.16 1019.56 625.893 1018.98 626.8V636.68C1020.02 638.253 1021.4 639.04 1023.14 639.04C1024.68 639.04 1025.84 638.427 1026.62 637.2C1027.39 635.973 1027.78 634.053 1027.78 631.44C1027.78 628.747 1027.43 626.8 1026.74 625.6C1026.04 624.373 1024.99 623.76 1023.58 623.76ZM1046.96 620.32C1050 620.32 1052.35 621.32 1054 623.32C1055.66 625.293 1056.48 627.987 1056.48 631.4C1056.48 634.813 1055.64 637.52 1053.96 639.52C1052.28 641.52 1049.94 642.52 1046.92 642.52C1043.88 642.52 1041.52 641.547 1039.84 639.6C1038.19 637.627 1037.36 634.907 1037.36 631.44C1037.36 628.08 1038.2 625.387 1039.88 623.36C1041.59 621.333 1043.95 620.32 1046.96 620.32ZM1046.96 623.8C1045.34 623.8 1044.11 624.427 1043.28 625.68C1042.48 626.933 1042.08 628.853 1042.08 631.44C1042.08 634.053 1042.48 635.987 1043.28 637.24C1044.08 638.467 1045.3 639.08 1046.92 639.08C1048.55 639.08 1049.76 638.453 1050.56 637.2C1051.36 635.947 1051.76 634.013 1051.76 631.4C1051.76 628.813 1051.36 626.907 1050.56 625.68C1049.76 624.427 1048.56 623.8 1046.96 623.8ZM1070.15 639.12C1071.56 639.12 1072.67 638.867 1073.47 638.36C1074.29 637.853 1074.71 637.16 1074.71 636.28C1074.71 635.667 1074.59 635.173 1074.35 634.8C1074.11 634.4 1073.63 634.04 1072.91 633.72C1072.19 633.373 1071.11 633.013 1069.67 632.64C1067.35 632.053 1065.6 631.307 1064.43 630.4C1063.28 629.467 1062.71 628.133 1062.71 626.4C1062.71 624.56 1063.47 623.093 1064.99 622C1066.51 620.88 1068.56 620.32 1071.15 620.32C1074.27 620.32 1076.95 621.133 1079.19 622.76L1077.27 625.6C1075.37 624.347 1073.37 623.72 1071.27 623.72C1068.6 623.72 1067.27 624.493 1067.27 626.04C1067.27 626.573 1067.41 627.013 1067.71 627.36C1068.03 627.707 1068.56 628.04 1069.31 628.36C1070.05 628.653 1071.16 629 1072.63 629.4C1074.92 630.04 1076.63 630.827 1077.75 631.76C1078.89 632.693 1079.47 634.093 1079.47 635.96C1079.47 638.12 1078.57 639.76 1076.79 640.88C1075 641.973 1072.79 642.52 1070.15 642.52C1066.65 642.52 1063.76 641.533 1061.47 639.56L1063.83 636.84C1064.71 637.533 1065.68 638.093 1066.75 638.52C1067.84 638.92 1068.97 639.12 1070.15 639.12ZM1104.09 640.88C1103.29 641.387 1102.36 641.787 1101.29 642.08C1100.22 642.373 1099.1 642.52 1097.93 642.52C1095.53 642.52 1093.68 641.907 1092.37 640.68C1091.06 639.427 1090.41 637.733 1090.41 635.6V624.16H1085.73V620.88H1090.41V616.16L1094.89 615.64V620.88H1102.05L1101.53 624.16H1094.89V635.56C1094.89 636.707 1095.18 637.56 1095.77 638.12C1096.36 638.653 1097.29 638.92 1098.57 638.92C1099.98 638.92 1101.29 638.587 1102.49 637.92L1104.09 640.88ZM1118.12 639.12C1119.53 639.12 1120.64 638.867 1121.44 638.36C1122.26 637.853 1122.68 637.16 1122.68 636.28C1122.68 635.667 1122.56 635.173 1122.32 634.8C1122.08 634.4 1121.6 634.04 1120.88 633.72C1120.16 633.373 1119.08 633.013 1117.64 632.64C1115.32 632.053 1113.57 631.307 1112.4 630.4C1111.25 629.467 1110.68 628.133 1110.68 626.4C1110.68 624.56 1111.44 623.093 1112.96 622C1114.48 620.88 1116.53 620.32 1119.12 620.32C1122.24 620.32 1124.92 621.133 1127.16 622.76L1125.24 625.6C1123.34 624.347 1121.34 623.72 1119.24 623.72C1116.57 623.72 1115.24 624.493 1115.24 626.04C1115.24 626.573 1115.38 627.013 1115.68 627.36C1116 627.707 1116.53 628.04 1117.28 628.36C1118.02 628.653 1119.13 629 1120.6 629.4C1122.89 630.04 1124.6 630.827 1125.72 631.76C1126.86 632.693 1127.43 634.093 1127.43 635.96C1127.43 638.12 1126.54 639.76 1124.76 640.88C1122.97 641.973 1120.76 642.52 1118.12 642.52C1114.62 642.52 1111.73 641.533 1109.44 639.56L1111.8 636.84C1112.68 637.533 1113.65 638.093 1114.72 638.52C1115.81 638.92 1116.94 639.12 1118.12 639.12ZM1072.67 878.84C1074.35 878.84 1076.08 878.24 1077.87 877.04L1079.91 879.92C1078.97 880.72 1077.85 881.36 1076.55 881.84C1075.24 882.293 1073.89 882.52 1072.51 882.52C1069.28 882.52 1066.76 881.533 1064.95 879.56C1063.13 877.56 1062.23 874.893 1062.23 871.56C1062.23 869.4 1062.64 867.48 1063.47 865.8C1064.29 864.093 1065.48 862.76 1067.03 861.8C1068.6 860.813 1070.45 860.32 1072.59 860.32C1075.39 860.32 1077.83 861.173 1079.91 862.88L1077.83 865.68C1076.12 864.507 1074.4 863.92 1072.67 863.92C1070.91 863.92 1069.52 864.56 1068.51 865.84C1067.49 867.093 1066.99 869 1066.99 871.56C1066.99 874.067 1067.49 875.907 1068.51 877.08C1069.52 878.253 1070.91 878.84 1072.67 878.84ZM1094.93 860.32C1097.97 860.32 1100.32 861.32 1101.97 863.32C1103.62 865.293 1104.45 867.987 1104.45 871.4C1104.45 874.813 1103.61 877.52 1101.93 879.52C1100.25 881.52 1097.9 882.52 1094.89 882.52C1091.85 882.52 1089.49 881.547 1087.81 879.6C1086.16 877.627 1085.33 874.907 1085.33 871.44C1085.33 868.08 1086.17 865.387 1087.85 863.36C1089.56 861.333 1091.92 860.32 1094.93 860.32ZM1094.93 863.8C1093.3 863.8 1092.08 864.427 1091.25 865.68C1090.45 866.933 1090.05 868.853 1090.05 871.44C1090.05 874.053 1090.45 875.987 1091.25 877.24C1092.05 878.467 1093.26 879.08 1094.89 879.08C1096.52 879.08 1097.73 878.453 1098.53 877.2C1099.33 875.947 1099.73 874.013 1099.73 871.4C1099.73 868.813 1099.33 866.907 1098.53 865.68C1097.73 864.427 1096.53 863.8 1094.93 863.8ZM1125 860.32C1126.3 860.32 1127.33 860.773 1128.08 861.68C1128.82 862.587 1129.2 864.133 1129.2 866.32V882H1125.24V866.92C1125.24 865.747 1125.14 864.933 1124.96 864.48C1124.8 864.027 1124.42 863.8 1123.84 863.8C1122.72 863.8 1121.68 864.507 1120.72 865.92V882H1117.08V866.92C1117.08 865.747 1116.98 864.933 1116.8 864.48C1116.64 864.027 1116.26 863.8 1115.68 863.8C1114.56 863.8 1113.52 864.507 1112.56 865.92V882H1108.56V860.88H1111.92L1112.24 863.16C1112.9 862.227 1113.58 861.52 1114.28 861.04C1114.97 860.56 1115.8 860.32 1116.76 860.32C1118.62 860.32 1119.82 861.213 1120.36 863C1121 862.147 1121.69 861.493 1122.44 861.04C1123.18 860.56 1124.04 860.32 1125 860.32ZM1148.98 860.32C1150.29 860.32 1151.31 860.773 1152.06 861.68C1152.81 862.587 1153.18 864.133 1153.18 866.32V882H1149.22V866.92C1149.22 865.747 1149.13 864.933 1148.94 864.48C1148.78 864.027 1148.41 863.8 1147.82 863.8C1146.7 863.8 1145.66 864.507 1144.7 865.92V882H1141.06V866.92C1141.06 865.747 1140.97 864.933 1140.78 864.48C1140.62 864.027 1140.25 863.8 1139.66 863.8C1138.54 863.8 1137.5 864.507 1136.54 865.92V882H1132.54V860.88H1135.9L1136.22 863.16C1136.89 862.227 1137.57 861.52 1138.26 861.04C1138.95 860.56 1139.78 860.32 1140.74 860.32C1142.61 860.32 1143.81 861.213 1144.34 863C1144.98 862.147 1145.67 861.493 1146.42 861.04C1147.17 860.56 1148.02 860.32 1148.98 860.32ZM1162.12 872.88C1162.26 874.933 1162.84 876.48 1163.88 877.52C1164.95 878.533 1166.28 879.04 1167.88 879.04C1168.87 879.04 1169.8 878.893 1170.68 878.6C1171.59 878.28 1172.51 877.813 1173.44 877.2L1175.36 879.92C1174.38 880.747 1173.22 881.387 1171.88 881.84C1170.55 882.293 1169.15 882.52 1167.68 882.52C1164.46 882.52 1161.95 881.52 1160.16 879.52C1158.38 877.493 1157.48 874.8 1157.48 871.44C1157.48 869.333 1157.87 867.44 1158.64 865.76C1159.42 864.053 1160.54 862.72 1162 861.76C1163.47 860.8 1165.18 860.32 1167.12 860.32C1169.92 860.32 1172.14 861.267 1173.76 863.16C1175.42 865.027 1176.24 867.6 1176.24 870.88C1176.24 871.68 1176.2 872.347 1176.12 872.88H1162.12ZM1167.16 863.64C1165.72 863.64 1164.55 864.16 1163.64 865.2C1162.74 866.24 1162.22 867.787 1162.08 869.84H1171.88C1171.83 867.84 1171.4 866.307 1170.6 865.24C1169.8 864.173 1168.66 863.64 1167.16 863.64ZM1182.39 860.88H1186.27L1186.59 863.64C1187.47 862.573 1188.49 861.76 1189.67 861.2C1190.87 860.613 1192.12 860.32 1193.43 860.32C1195.37 860.32 1196.84 860.867 1197.83 861.96C1198.81 863.053 1199.31 864.6 1199.31 866.6V882H1194.83V868.84C1194.83 867.533 1194.75 866.533 1194.59 865.84C1194.45 865.12 1194.17 864.6 1193.75 864.28C1193.32 863.933 1192.68 863.76 1191.83 863.76C1190.87 863.76 1189.95 864.053 1189.07 864.64C1188.21 865.227 1187.48 865.96 1186.87 866.84V882H1182.39V860.88ZM1224.01 880.88C1223.21 881.387 1222.28 881.787 1221.21 882.08C1220.15 882.373 1219.03 882.52 1217.85 882.52C1215.45 882.52 1213.6 881.907 1212.29 880.68C1210.99 879.427 1210.33 877.733 1210.33 875.6V864.16H1205.65V860.88H1210.33V856.16L1214.81 855.64V860.88H1221.97L1221.45 864.16H1214.81V875.56C1214.81 876.707 1215.11 877.56 1215.69 878.12C1216.28 878.653 1217.21 878.92 1218.49 878.92C1219.91 878.92 1221.21 878.587 1222.41 877.92L1224.01 880.88ZM1238.04 879.12C1239.45 879.12 1240.56 878.867 1241.36 878.36C1242.18 877.853 1242.6 877.16 1242.6 876.28C1242.6 875.667 1242.48 875.173 1242.24 874.8C1242 874.4 1241.52 874.04 1240.8 873.72C1240.08 873.373 1239 873.013 1237.56 872.64C1235.24 872.053 1233.49 871.307 1232.32 870.4C1231.17 869.467 1230.6 868.133 1230.6 866.4C1230.6 864.56 1231.36 863.093 1232.88 862C1234.4 860.88 1236.45 860.32 1239.04 860.32C1242.16 860.32 1244.84 861.133 1247.08 862.76L1245.16 865.6C1243.26 864.347 1241.26 863.72 1239.16 863.72C1236.49 863.72 1235.16 864.493 1235.16 866.04C1235.16 866.573 1235.3 867.013 1235.6 867.36C1235.92 867.707 1236.45 868.04 1237.2 868.36C1237.94 868.653 1239.05 869 1240.52 869.4C1242.81 870.04 1244.52 870.827 1245.64 871.76C1246.78 872.693 1247.36 874.093 1247.36 875.96C1247.36 878.12 1246.46 879.76 1244.68 880.88C1242.89 881.973 1240.68 882.52 1238.04 882.52C1234.54 882.52 1231.65 881.533 1229.36 879.56L1231.72 876.84C1232.6 877.533 1233.57 878.093 1234.64 878.52C1235.73 878.92 1236.86 879.12 1238.04 879.12Z" fill="#047D65"/>
<path d="M1128.08 448.88C1127.28 449.387 1126.34 449.787 1125.28 450.08C1124.21 450.373 1123.09 450.52 1121.92 450.52C1119.52 450.52 1117.66 449.907 1116.36 448.68C1115.05 447.427 1114.4 445.733 1114.4 443.6V432.16H1109.72V428.88H1114.4V424.16L1118.88 423.64V428.88H1126.04L1125.52 432.16H1118.88V443.56C1118.88 444.707 1119.17 445.56 1119.76 446.12C1120.34 446.653 1121.28 446.92 1122.56 446.92C1123.97 446.92 1125.28 446.587 1126.48 445.92L1128.08 448.88ZM1150.58 444.84C1150.58 445.64 1150.7 446.24 1150.94 446.64C1151.18 447.013 1151.59 447.293 1152.18 447.48L1151.14 450.52C1148.93 450.253 1147.47 449.28 1146.78 447.6C1146.01 448.56 1145.03 449.293 1143.86 449.8C1142.71 450.28 1141.45 450.52 1140.06 450.52C1137.93 450.52 1136.23 449.92 1134.98 448.72C1133.73 447.52 1133.1 445.933 1133.1 443.96C1133.1 441.747 1133.97 440.04 1135.7 438.84C1137.46 437.64 1139.94 437.04 1143.14 437.04H1146.14V435.68C1146.14 434.347 1145.74 433.373 1144.94 432.76C1144.14 432.147 1142.98 431.84 1141.46 431.84C1140.71 431.84 1139.85 431.933 1138.86 432.12C1137.87 432.307 1136.87 432.573 1135.86 432.92L1134.74 429.76C1137.27 428.8 1139.74 428.32 1142.14 428.32C1144.94 428.32 1147.05 428.933 1148.46 430.16C1149.87 431.387 1150.58 433.133 1150.58 435.4V444.84ZM1141.38 447.24C1142.31 447.24 1143.21 447 1144.06 446.52C1144.94 446.04 1145.63 445.373 1146.14 444.52V439.84H1143.66C1141.63 439.84 1140.15 440.187 1139.22 440.88C1138.29 441.547 1137.82 442.52 1137.82 443.8C1137.82 444.92 1138.11 445.773 1138.7 446.36C1139.31 446.947 1140.21 447.24 1141.38 447.24ZM1163 450H1158.52V420.4L1163 419.88V450ZM1168.48 438.32L1177.88 450H1172.4L1163.32 438.44L1171.8 428.88H1177L1168.48 438.32ZM1186.11 440.88C1186.24 442.933 1186.83 444.48 1187.87 445.52C1188.93 446.533 1190.27 447.04 1191.87 447.04C1192.85 447.04 1193.79 446.893 1194.67 446.6C1195.57 446.28 1196.49 445.813 1197.43 445.2L1199.35 447.92C1198.36 448.747 1197.2 449.387 1195.87 449.84C1194.53 450.293 1193.13 450.52 1191.67 450.52C1188.44 450.52 1185.93 449.52 1184.15 447.52C1182.36 445.493 1181.47 442.8 1181.47 439.44C1181.47 437.333 1181.85 435.44 1182.63 433.76C1183.4 432.053 1184.52 430.72 1185.99 429.76C1187.45 428.8 1189.16 428.32 1191.11 428.32C1193.91 428.32 1196.12 429.267 1197.75 431.16C1199.4 433.027 1200.23 435.6 1200.23 438.88C1200.23 439.68 1200.19 440.347 1200.11 440.88H1186.11ZM1191.15 431.64C1189.71 431.64 1188.53 432.16 1187.63 433.2C1186.72 434.24 1186.2 435.787 1186.07 437.84H1195.87C1195.81 435.84 1195.39 434.307 1194.59 433.24C1193.79 432.173 1192.64 431.64 1191.15 431.64ZM1022.94 466.52C1023.79 466.52 1024.48 466.8 1025.02 467.36C1025.58 467.893 1025.86 468.56 1025.86 469.36C1025.86 470.16 1025.58 470.827 1025.02 471.36C1024.48 471.893 1023.79 472.16 1022.94 472.16C1022.06 472.16 1021.35 471.893 1020.82 471.36C1020.28 470.827 1020.02 470.16 1020.02 469.36C1020.02 468.533 1020.28 467.853 1020.82 467.32C1021.38 466.787 1022.08 466.52 1022.94 466.52ZM1026.02 494.72H1031.78V498H1015.26V494.72H1021.54V480.16H1015.46V476.88H1026.02V494.72ZM1055.36 468.4V498H1051.4L1051.08 495.4C1050.39 496.413 1049.54 497.187 1048.52 497.72C1047.51 498.253 1046.39 498.52 1045.16 498.52C1042.52 498.52 1040.54 497.533 1039.2 495.56C1037.87 493.587 1037.2 490.88 1037.2 487.44C1037.2 485.28 1037.54 483.36 1038.2 481.68C1038.9 480 1039.87 478.693 1041.12 477.76C1042.38 476.8 1043.86 476.32 1045.56 476.32C1047.72 476.32 1049.5 477.093 1050.88 478.64V467.88L1055.36 468.4ZM1046.72 479.76C1045.18 479.76 1043.99 480.4 1043.16 481.68C1042.36 482.933 1041.96 484.853 1041.96 487.44C1041.96 492.56 1043.43 495.12 1046.36 495.12C1048.12 495.12 1049.63 494.107 1050.88 492.08V482.12C1049.79 480.547 1048.4 479.76 1046.72 479.76ZM1018.22 536.88C1018.35 538.933 1018.94 540.48 1019.98 541.52C1021.04 542.533 1022.38 543.04 1023.98 543.04C1024.96 543.04 1025.9 542.893 1026.78 542.6C1027.68 542.28 1028.6 541.813 1029.54 541.2L1031.46 543.92C1030.47 544.747 1029.31 545.387 1027.98 545.84C1026.64 546.293 1025.24 546.52 1023.78 546.52C1020.55 546.52 1018.04 545.52 1016.26 543.52C1014.47 541.493 1013.58 538.8 1013.58 535.44C1013.58 533.333 1013.96 531.44 1014.74 529.76C1015.51 528.053 1016.63 526.72 1018.1 525.76C1019.56 524.8 1021.27 524.32 1023.22 524.32C1026.02 524.32 1028.23 525.267 1029.86 527.16C1031.51 529.027 1032.34 531.6 1032.34 534.88C1032.34 535.68 1032.3 536.347 1032.22 536.88H1018.22ZM1023.26 527.64C1021.82 527.64 1020.64 528.16 1019.74 529.2C1018.83 530.24 1018.31 531.787 1018.18 533.84H1027.98C1027.92 531.84 1027.5 530.307 1026.7 529.24C1025.9 528.173 1024.75 527.64 1023.26 527.64ZM1053.04 524.32C1054.35 524.32 1055.38 524.773 1056.12 525.68C1056.87 526.587 1057.24 528.133 1057.24 530.32V546H1053.28V530.92C1053.28 529.747 1053.19 528.933 1053 528.48C1052.84 528.027 1052.47 527.8 1051.88 527.8C1050.76 527.8 1049.72 528.507 1048.76 529.92V546H1045.12V530.92C1045.12 529.747 1045.03 528.933 1044.84 528.48C1044.68 528.027 1044.31 527.8 1043.72 527.8C1042.6 527.8 1041.56 528.507 1040.6 529.92V546H1036.6V524.88H1039.96L1040.28 527.16C1040.95 526.227 1041.63 525.52 1042.32 525.04C1043.02 524.56 1043.84 524.32 1044.8 524.32C1046.67 524.32 1047.87 525.213 1048.4 527C1049.04 526.147 1049.74 525.493 1050.48 525.04C1051.23 524.56 1052.08 524.32 1053.04 524.32ZM1078.63 540.84C1078.63 541.64 1078.75 542.24 1078.99 542.64C1079.23 543.013 1079.64 543.293 1080.23 543.48L1079.19 546.52C1076.97 546.253 1075.52 545.28 1074.83 543.6C1074.05 544.56 1073.08 545.293 1071.91 545.8C1070.76 546.28 1069.49 546.52 1068.11 546.52C1065.97 546.52 1064.28 545.92 1063.03 544.72C1061.77 543.52 1061.15 541.933 1061.15 539.96C1061.15 537.747 1062.01 536.04 1063.75 534.84C1065.51 533.64 1067.99 533.04 1071.19 533.04H1074.19V531.68C1074.19 530.347 1073.79 529.373 1072.99 528.76C1072.19 528.147 1071.03 527.84 1069.51 527.84C1068.76 527.84 1067.89 527.933 1066.91 528.12C1065.92 528.307 1064.92 528.573 1063.91 528.92L1062.79 525.76C1065.32 524.8 1067.79 524.32 1070.19 524.32C1072.99 524.32 1075.09 524.933 1076.51 526.16C1077.92 527.387 1078.63 529.133 1078.63 531.4V540.84ZM1069.43 543.24C1070.36 543.24 1071.25 543 1072.11 542.52C1072.99 542.04 1073.68 541.373 1074.19 540.52V535.84H1071.71C1069.68 535.84 1068.2 536.187 1067.27 536.88C1066.33 537.547 1065.87 538.52 1065.87 539.8C1065.87 540.92 1066.16 541.773 1066.75 542.36C1067.36 542.947 1068.25 543.24 1069.43 543.24ZM1094.89 514.52C1095.74 514.52 1096.44 514.8 1096.97 515.36C1097.53 515.893 1097.81 516.56 1097.81 517.36C1097.81 518.16 1097.53 518.827 1096.97 519.36C1096.44 519.893 1095.74 520.16 1094.89 520.16C1094.01 520.16 1093.3 519.893 1092.77 519.36C1092.24 518.827 1091.97 518.16 1091.97 517.36C1091.97 516.533 1092.24 515.853 1092.77 515.32C1093.33 514.787 1094.04 514.52 1094.89 514.52ZM1097.97 542.72H1103.73V546H1087.21V542.72H1093.49V528.16H1087.41V524.88H1097.97V542.72ZM1119.72 540.24C1119.72 542.027 1120.78 542.92 1122.92 542.92C1123.98 542.92 1125.1 542.68 1126.28 542.2L1127.4 545.32C1125.93 546.12 1124.12 546.52 1121.96 546.52C1119.85 546.52 1118.2 545.933 1117 544.76C1115.82 543.56 1115.24 541.92 1115.24 539.84V519.68H1108.88V516.4H1119.72V540.24ZM1014.5 572.88H1018.38L1018.7 575.64C1019.58 574.573 1020.6 573.76 1021.78 573.2C1022.98 572.613 1024.23 572.32 1025.54 572.32C1027.48 572.32 1028.95 572.867 1029.94 573.96C1030.92 575.053 1031.42 576.6 1031.42 578.6V594H1026.94V580.84C1026.94 579.533 1026.86 578.533 1026.7 577.84C1026.56 577.12 1026.28 576.6 1025.86 576.28C1025.43 575.933 1024.79 575.76 1023.94 575.76C1022.98 575.76 1022.06 576.053 1021.18 576.64C1020.32 577.227 1019.59 577.96 1018.98 578.84V594H1014.5V572.88ZM1054.64 588.84C1054.64 589.64 1054.76 590.24 1055 590.64C1055.24 591.013 1055.66 591.293 1056.24 591.48L1055.2 594.52C1052.99 594.253 1051.54 593.28 1050.84 591.6C1050.07 592.56 1049.1 593.293 1047.92 593.8C1046.78 594.28 1045.51 594.52 1044.12 594.52C1041.99 594.52 1040.3 593.92 1039.04 592.72C1037.79 591.52 1037.16 589.933 1037.16 587.96C1037.16 585.747 1038.03 584.04 1039.76 582.84C1041.52 581.64 1044 581.04 1047.2 581.04H1050.2V579.68C1050.2 578.347 1049.8 577.373 1049 576.76C1048.2 576.147 1047.04 575.84 1045.52 575.84C1044.78 575.84 1043.91 575.933 1042.92 576.12C1041.94 576.307 1040.94 576.573 1039.92 576.92L1038.8 573.76C1041.34 572.8 1043.8 572.32 1046.2 572.32C1049 572.32 1051.11 572.933 1052.52 574.16C1053.94 575.387 1054.64 577.133 1054.64 579.4V588.84ZM1045.44 591.24C1046.38 591.24 1047.27 591 1048.12 590.52C1049 590.04 1049.7 589.373 1050.2 588.52V583.84H1047.72C1045.7 583.84 1044.22 584.187 1043.28 584.88C1042.35 585.547 1041.88 586.52 1041.88 587.8C1041.88 588.92 1042.18 589.773 1042.76 590.36C1043.38 590.947 1044.27 591.24 1045.44 591.24ZM1077.03 572.32C1078.33 572.32 1079.36 572.773 1080.11 573.68C1080.85 574.587 1081.23 576.133 1081.23 578.32V594H1077.27V578.92C1077.27 577.747 1077.17 576.933 1076.99 576.48C1076.83 576.027 1076.45 575.8 1075.87 575.8C1074.75 575.8 1073.71 576.507 1072.75 577.92V594H1069.11V578.92C1069.11 577.747 1069.01 576.933 1068.83 576.48C1068.67 576.027 1068.29 575.8 1067.71 575.8C1066.59 575.8 1065.55 576.507 1064.59 577.92V594H1060.59V572.88H1063.95L1064.27 575.16C1064.93 574.227 1065.61 573.52 1066.31 573.04C1067 572.56 1067.83 572.32 1068.79 572.32C1070.65 572.32 1071.85 573.213 1072.39 575C1073.03 574.147 1073.72 573.493 1074.47 573.04C1075.21 572.56 1076.07 572.32 1077.03 572.32ZM1090.17 584.88C1090.3 586.933 1090.89 588.48 1091.93 589.52C1093 590.533 1094.33 591.04 1095.93 591.04C1096.92 591.04 1097.85 590.893 1098.73 590.6C1099.64 590.28 1100.56 589.813 1101.49 589.2L1103.41 591.92C1102.42 592.747 1101.26 593.387 1099.93 593.84C1098.6 594.293 1097.2 594.52 1095.73 594.52C1092.5 594.52 1090 593.52 1088.21 591.52C1086.42 589.493 1085.53 586.8 1085.53 583.44C1085.53 581.333 1085.92 579.44 1086.69 577.76C1087.46 576.053 1088.58 574.72 1090.05 573.76C1091.52 572.8 1093.22 572.32 1095.17 572.32C1097.97 572.32 1100.18 573.267 1101.81 575.16C1103.46 577.027 1104.29 579.6 1104.29 582.88C1104.29 583.68 1104.25 584.347 1104.17 584.88H1090.17ZM1095.21 575.64C1093.77 575.64 1092.6 576.16 1091.69 577.2C1090.78 578.24 1090.26 579.787 1090.13 581.84H1099.93C1099.88 579.84 1099.45 578.307 1098.65 577.24C1097.85 576.173 1096.7 575.64 1095.21 575.64ZM1176.04 640.88C1175.24 641.387 1174.31 641.787 1173.24 642.08C1172.18 642.373 1171.06 642.52 1169.88 642.52C1167.48 642.52 1165.63 641.907 1164.32 640.68C1163.02 639.427 1162.36 637.733 1162.36 635.6V624.16H1157.68V620.88H1162.36V616.16L1166.84 615.64V620.88H1174L1173.48 624.16H1166.84V635.56C1166.84 636.707 1167.14 637.56 1167.72 638.12C1168.31 638.653 1169.24 638.92 1170.52 638.92C1171.94 638.92 1173.24 638.587 1174.44 637.92L1176.04 640.88ZM1198.55 636.84C1198.55 637.64 1198.67 638.24 1198.91 638.64C1199.15 639.013 1199.56 639.293 1200.15 639.48L1199.11 642.52C1196.89 642.253 1195.44 641.28 1194.75 639.6C1193.97 640.56 1193 641.293 1191.83 641.8C1190.68 642.28 1189.41 642.52 1188.03 642.52C1185.89 642.52 1184.2 641.92 1182.95 640.72C1181.69 639.52 1181.07 637.933 1181.07 635.96C1181.07 633.747 1181.93 632.04 1183.67 630.84C1185.43 629.64 1187.91 629.04 1191.11 629.04H1194.11V627.68C1194.11 626.347 1193.71 625.373 1192.91 624.76C1192.11 624.147 1190.95 623.84 1189.43 623.84C1188.68 623.84 1187.81 623.933 1186.83 624.12C1185.84 624.307 1184.84 624.573 1183.83 624.92L1182.71 621.76C1185.24 620.8 1187.71 620.32 1190.11 620.32C1192.91 620.32 1195.01 620.933 1196.43 622.16C1197.84 623.387 1198.55 625.133 1198.55 627.4V636.84ZM1189.35 639.24C1190.28 639.24 1191.17 639 1192.03 638.52C1192.91 638.04 1193.6 637.373 1194.11 636.52V631.84H1191.63C1189.6 631.84 1188.12 632.187 1187.19 632.88C1186.25 633.547 1185.79 634.52 1185.79 635.8C1185.79 636.92 1186.08 637.773 1186.67 638.36C1187.28 638.947 1188.17 639.24 1189.35 639.24ZM1210.97 642H1206.49V612.4L1210.97 611.88V642ZM1216.45 630.32L1225.85 642H1220.37L1211.29 630.44L1219.77 620.88H1224.97L1216.45 630.32ZM1234.08 632.88C1234.21 634.933 1234.8 636.48 1235.84 637.52C1236.9 638.533 1238.24 639.04 1239.84 639.04C1240.82 639.04 1241.76 638.893 1242.64 638.6C1243.54 638.28 1244.46 637.813 1245.4 637.2L1247.32 639.92C1246.33 640.747 1245.17 641.387 1243.84 641.84C1242.5 642.293 1241.1 642.52 1239.64 642.52C1236.41 642.52 1233.9 641.52 1232.12 639.52C1230.33 637.493 1229.44 634.8 1229.44 631.44C1229.44 629.333 1229.82 627.44 1230.6 625.76C1231.37 624.053 1232.49 622.72 1233.96 621.76C1235.42 620.8 1237.13 620.32 1239.08 620.32C1241.88 620.32 1244.09 621.267 1245.72 623.16C1247.37 625.027 1248.2 627.6 1248.2 630.88C1248.2 631.68 1248.16 632.347 1248.08 632.88H1234.08ZM1239.12 623.64C1237.68 623.64 1236.5 624.16 1235.6 625.2C1234.69 626.24 1234.17 627.787 1234.04 629.84H1243.84C1243.78 627.84 1243.36 626.307 1242.56 625.24C1241.76 624.173 1240.61 623.64 1239.12 623.64ZM1070.91 658.52C1071.76 658.52 1072.45 658.8 1072.99 659.36C1073.55 659.893 1073.83 660.56 1073.83 661.36C1073.83 662.16 1073.55 662.827 1072.99 663.36C1072.45 663.893 1071.76 664.16 1070.91 664.16C1070.03 664.16 1069.32 663.893 1068.79 663.36C1068.25 662.827 1067.99 662.16 1067.99 661.36C1067.99 660.533 1068.25 659.853 1068.79 659.32C1069.35 658.787 1070.05 658.52 1070.91 658.52ZM1073.99 686.72H1079.75V690H1063.23V686.72H1069.51V672.16H1063.43V668.88H1073.99V686.72ZM1103.33 660.4V690H1099.37L1099.05 687.4C1098.36 688.413 1097.5 689.187 1096.49 689.72C1095.48 690.253 1094.36 690.52 1093.13 690.52C1090.49 690.52 1088.5 689.533 1087.17 687.56C1085.84 685.587 1085.17 682.88 1085.17 679.44C1085.17 677.28 1085.5 675.36 1086.17 673.68C1086.86 672 1087.84 670.693 1089.09 669.76C1090.34 668.8 1091.82 668.32 1093.53 668.32C1095.69 668.32 1097.46 669.093 1098.85 670.64V659.88L1103.33 660.4ZM1094.69 671.76C1093.14 671.76 1091.96 672.4 1091.13 673.68C1090.33 674.933 1089.93 676.853 1089.93 679.44C1089.93 684.56 1091.4 687.12 1094.33 687.12C1096.09 687.12 1097.6 686.107 1098.85 684.08V674.12C1097.76 672.547 1096.37 671.76 1094.69 671.76ZM1080.11 736.88C1079.31 737.387 1078.37 737.787 1077.31 738.08C1076.24 738.373 1075.12 738.52 1073.95 738.52C1071.55 738.52 1069.69 737.907 1068.39 736.68C1067.08 735.427 1066.43 733.733 1066.43 731.6V720.16H1061.75V716.88H1066.43V712.16L1070.91 711.64V716.88H1078.07L1077.55 720.16H1070.91V731.56C1070.91 732.707 1071.2 733.56 1071.79 734.12C1072.37 734.653 1073.31 734.92 1074.59 734.92C1076 734.92 1077.31 734.587 1078.51 733.92L1080.11 736.88ZM1094.89 706.52C1095.74 706.52 1096.44 706.8 1096.97 707.36C1097.53 707.893 1097.81 708.56 1097.81 709.36C1097.81 710.16 1097.53 710.827 1096.97 711.36C1096.44 711.893 1095.74 712.16 1094.89 712.16C1094.01 712.16 1093.3 711.893 1092.77 711.36C1092.24 710.827 1091.97 710.16 1091.97 709.36C1091.97 708.533 1092.24 707.853 1092.77 707.32C1093.33 706.787 1094.04 706.52 1094.89 706.52ZM1097.97 734.72H1103.73V738H1087.21V734.72H1093.49V720.16H1087.41V716.88H1097.97V734.72ZM1128.08 736.88C1127.28 737.387 1126.34 737.787 1125.28 738.08C1124.21 738.373 1123.09 738.52 1121.92 738.52C1119.52 738.52 1117.66 737.907 1116.36 736.68C1115.05 735.427 1114.4 733.733 1114.4 731.6V720.16H1109.72V716.88H1114.4V712.16L1118.88 711.64V716.88H1126.04L1125.52 720.16H1118.88V731.56C1118.88 732.707 1119.17 733.56 1119.76 734.12C1120.34 734.653 1121.28 734.92 1122.56 734.92C1123.97 734.92 1125.28 734.587 1126.48 733.92L1128.08 736.88ZM1143.7 732.24C1143.7 734.027 1144.77 734.92 1146.9 734.92C1147.97 734.92 1149.09 734.68 1150.26 734.2L1151.38 737.32C1149.91 738.12 1148.1 738.52 1145.94 738.52C1143.83 738.52 1142.18 737.933 1140.98 736.76C1139.81 735.56 1139.22 733.92 1139.22 731.84V711.68H1132.86V708.4H1143.7V732.24ZM1162.12 728.88C1162.26 730.933 1162.84 732.48 1163.88 733.52C1164.95 734.533 1166.28 735.04 1167.88 735.04C1168.87 735.04 1169.8 734.893 1170.68 734.6C1171.59 734.28 1172.51 733.813 1173.44 733.2L1175.36 735.92C1174.38 736.747 1173.22 737.387 1171.88 737.84C1170.55 738.293 1169.15 738.52 1167.68 738.52C1164.46 738.52 1161.95 737.52 1160.16 735.52C1158.38 733.493 1157.48 730.8 1157.48 727.44C1157.48 725.333 1157.87 723.44 1158.64 721.76C1159.42 720.053 1160.54 718.72 1162 717.76C1163.47 716.8 1165.18 716.32 1167.12 716.32C1169.92 716.32 1172.14 717.267 1173.76 719.16C1175.42 721.027 1176.24 723.6 1176.24 726.88C1176.24 727.68 1176.2 728.347 1176.12 728.88H1162.12ZM1167.16 719.64C1165.72 719.64 1164.55 720.16 1163.64 721.2C1162.74 722.24 1162.22 723.787 1162.08 725.84H1171.88C1171.83 723.84 1171.4 722.307 1170.6 721.24C1169.8 720.173 1168.66 719.64 1167.16 719.64ZM1072.67 782.84C1074.35 782.84 1076.08 782.24 1077.87 781.04L1079.91 783.92C1078.97 784.72 1077.85 785.36 1076.55 785.84C1075.24 786.293 1073.89 786.52 1072.51 786.52C1069.28 786.52 1066.76 785.533 1064.95 783.56C1063.13 781.56 1062.23 778.893 1062.23 775.56C1062.23 773.4 1062.64 771.48 1063.47 769.8C1064.29 768.093 1065.48 766.76 1067.03 765.8C1068.6 764.813 1070.45 764.32 1072.59 764.32C1075.39 764.32 1077.83 765.173 1079.91 766.88L1077.83 769.68C1076.12 768.507 1074.4 767.92 1072.67 767.92C1070.91 767.92 1069.52 768.56 1068.51 769.84C1067.49 771.093 1066.99 773 1066.99 775.56C1066.99 778.067 1067.49 779.907 1068.51 781.08C1069.52 782.253 1070.91 782.84 1072.67 782.84ZM1094.93 764.32C1097.97 764.32 1100.32 765.32 1101.97 767.32C1103.62 769.293 1104.45 771.987 1104.45 775.4C1104.45 778.813 1103.61 781.52 1101.93 783.52C1100.25 785.52 1097.9 786.52 1094.89 786.52C1091.85 786.52 1089.49 785.547 1087.81 783.6C1086.16 781.627 1085.33 778.907 1085.33 775.44C1085.33 772.08 1086.17 769.387 1087.85 767.36C1089.56 765.333 1091.92 764.32 1094.93 764.32ZM1094.93 767.8C1093.3 767.8 1092.08 768.427 1091.25 769.68C1090.45 770.933 1090.05 772.853 1090.05 775.44C1090.05 778.053 1090.45 779.987 1091.25 781.24C1092.05 782.467 1093.26 783.08 1094.89 783.08C1096.52 783.08 1097.73 782.453 1098.53 781.2C1099.33 779.947 1099.73 778.013 1099.73 775.4C1099.73 772.813 1099.33 770.907 1098.53 769.68C1097.73 768.427 1096.53 767.8 1094.93 767.8ZM1110.44 764.88H1114.32L1114.64 767.64C1115.52 766.573 1116.54 765.76 1117.72 765.2C1118.92 764.613 1120.17 764.32 1121.48 764.32C1123.42 764.32 1124.89 764.867 1125.88 765.96C1126.86 767.053 1127.36 768.6 1127.36 770.6V786H1122.88V772.84C1122.88 771.533 1122.8 770.533 1122.64 769.84C1122.5 769.12 1122.22 768.6 1121.8 768.28C1121.37 767.933 1120.73 767.76 1119.88 767.76C1118.92 767.76 1118 768.053 1117.12 768.64C1116.26 769.227 1115.53 769.96 1114.92 770.84V786H1110.44V764.88ZM1152.06 784.88C1151.26 785.387 1150.33 785.787 1149.26 786.08C1148.19 786.373 1147.07 786.52 1145.9 786.52C1143.5 786.52 1141.65 785.907 1140.34 784.68C1139.03 783.427 1138.38 781.733 1138.38 779.6V768.16H1133.7V764.88H1138.38V760.16L1142.86 759.64V764.88H1150.02L1149.5 768.16H1142.86V779.56C1142.86 780.707 1143.15 781.56 1143.74 782.12C1144.33 782.653 1145.26 782.92 1146.54 782.92C1147.95 782.92 1149.26 782.587 1150.46 781.92L1152.06 784.88ZM1162.12 776.88C1162.26 778.933 1162.84 780.48 1163.88 781.52C1164.95 782.533 1166.28 783.04 1167.88 783.04C1168.87 783.04 1169.8 782.893 1170.68 782.6C1171.59 782.28 1172.51 781.813 1173.44 781.2L1175.36 783.92C1174.38 784.747 1173.22 785.387 1171.88 785.84C1170.55 786.293 1169.15 786.52 1167.68 786.52C1164.46 786.52 1161.95 785.52 1160.16 783.52C1158.38 781.493 1157.48 778.8 1157.48 775.44C1157.48 773.333 1157.87 771.44 1158.64 769.76C1159.42 768.053 1160.54 766.72 1162 765.76C1163.47 764.8 1165.18 764.32 1167.12 764.32C1169.92 764.32 1172.14 765.267 1173.76 767.16C1175.42 769.027 1176.24 771.6 1176.24 774.88C1176.24 775.68 1176.2 776.347 1176.12 776.88H1162.12ZM1167.16 767.64C1165.72 767.64 1164.55 768.16 1163.64 769.2C1162.74 770.24 1162.22 771.787 1162.08 773.84H1171.88C1171.83 771.84 1171.4 770.307 1170.6 769.24C1169.8 768.173 1168.66 767.64 1167.16 767.64ZM1182.39 764.88H1186.27L1186.59 767.64C1187.47 766.573 1188.49 765.76 1189.67 765.2C1190.87 764.613 1192.12 764.32 1193.43 764.32C1195.37 764.32 1196.84 764.867 1197.83 765.96C1198.81 767.053 1199.31 768.6 1199.31 770.6V786H1194.83V772.84C1194.83 771.533 1194.75 770.533 1194.59 769.84C1194.45 769.12 1194.17 768.6 1193.75 768.28C1193.32 767.933 1192.68 767.76 1191.83 767.76C1190.87 767.76 1189.95 768.053 1189.07 768.64C1188.21 769.227 1187.48 769.96 1186.87 770.84V786H1182.39V764.88ZM1224.01 784.88C1223.21 785.387 1222.28 785.787 1221.21 786.08C1220.15 786.373 1219.03 786.52 1217.85 786.52C1215.45 786.52 1213.6 785.907 1212.29 784.68C1210.99 783.427 1210.33 781.733 1210.33 779.6V768.16H1205.65V764.88H1210.33V760.16L1214.81 759.64V764.88H1221.97L1221.45 768.16H1214.81V779.56C1214.81 780.707 1215.11 781.56 1215.69 782.12C1216.28 782.653 1217.21 782.92 1218.49 782.92C1219.91 782.92 1221.21 782.587 1222.41 781.92L1224.01 784.88ZM1072.79 812.32C1077.91 812.32 1080.47 816.013 1080.47 823.4C1080.47 826.733 1079.76 829.427 1078.35 831.48C1076.93 833.507 1074.92 834.52 1072.31 834.52C1070.09 834.52 1068.31 833.747 1066.95 832.2V842.12L1062.47 842.64V812.88H1066.35L1066.63 815.6C1067.43 814.533 1068.35 813.72 1069.39 813.16C1070.45 812.6 1071.59 812.32 1072.79 812.32ZM1071.55 815.76C1070.61 815.76 1069.76 816.04 1068.99 816.6C1068.21 817.16 1067.53 817.893 1066.95 818.8V828.68C1067.99 830.253 1069.37 831.04 1071.11 831.04C1072.65 831.04 1073.81 830.427 1074.59 829.2C1075.36 827.973 1075.75 826.053 1075.75 823.44C1075.75 820.747 1075.4 818.8 1074.71 817.6C1074.01 816.373 1072.96 815.76 1071.55 815.76ZM1090.93 827.64C1090.93 828.867 1091.17 829.76 1091.65 830.32C1092.16 830.853 1092.92 831.12 1093.93 831.12C1094.89 831.12 1095.81 830.84 1096.69 830.28C1097.6 829.72 1098.32 829.013 1098.85 828.16V812.88H1103.33V834H1099.45L1099.17 831.28C1098.42 832.32 1097.45 833.12 1096.25 833.68C1095.05 834.24 1093.81 834.52 1092.53 834.52C1090.5 834.52 1088.98 833.973 1087.97 832.88C1086.96 831.787 1086.45 830.227 1086.45 828.2V812.88H1090.93V827.64ZM1114.92 815.4C1115.64 814.413 1116.49 813.653 1117.48 813.12C1118.49 812.587 1119.57 812.32 1120.72 812.32C1123.41 812.32 1125.4 813.293 1126.68 815.24C1127.96 817.187 1128.6 819.907 1128.6 823.4C1128.6 826.707 1127.85 829.387 1126.36 831.44C1124.89 833.493 1122.82 834.52 1120.16 834.52C1117.81 834.52 1115.97 833.653 1114.64 831.92L1114.4 834H1110.44V804.4L1114.92 803.88V815.4ZM1119.08 831.12C1120.62 831.12 1121.8 830.493 1122.6 829.24C1123.42 827.96 1123.84 826.027 1123.84 823.44C1123.84 820.773 1123.46 818.827 1122.72 817.6C1122 816.373 1120.92 815.76 1119.48 815.76C1118.57 815.76 1117.72 816.04 1116.92 816.6C1116.14 817.16 1115.48 817.893 1114.92 818.8V828.68C1115.98 830.307 1117.37 831.12 1119.08 831.12ZM1143.7 828.24C1143.7 830.027 1144.77 830.92 1146.9 830.92C1147.97 830.92 1149.09 830.68 1150.26 830.2L1151.38 833.32C1149.91 834.12 1148.1 834.52 1145.94 834.52C1143.83 834.52 1142.18 833.933 1140.98 832.76C1139.81 831.56 1139.22 829.92 1139.22 827.84V807.68H1132.86V804.4H1143.7V828.24ZM1166.84 802.52C1167.7 802.52 1168.39 802.8 1168.92 803.36C1169.48 803.893 1169.76 804.56 1169.76 805.36C1169.76 806.16 1169.48 806.827 1168.92 807.36C1168.39 807.893 1167.7 808.16 1166.84 808.16C1165.96 808.16 1165.26 807.893 1164.72 807.36C1164.19 806.827 1163.92 806.16 1163.92 805.36C1163.92 804.533 1164.19 803.853 1164.72 803.32C1165.28 802.787 1165.99 802.52 1166.84 802.52ZM1169.92 830.72H1175.68V834H1159.16V830.72H1165.44V816.16H1159.36V812.88H1169.92V830.72ZM1190.07 831.12C1191.48 831.12 1192.59 830.867 1193.39 830.36C1194.21 829.853 1194.63 829.16 1194.63 828.28C1194.63 827.667 1194.51 827.173 1194.27 826.8C1194.03 826.4 1193.55 826.04 1192.83 825.72C1192.11 825.373 1191.03 825.013 1189.59 824.64C1187.27 824.053 1185.52 823.307 1184.35 822.4C1183.2 821.467 1182.63 820.133 1182.63 818.4C1182.63 816.56 1183.39 815.093 1184.91 814C1186.43 812.88 1188.48 812.32 1191.07 812.32C1194.19 812.32 1196.87 813.133 1199.11 814.76L1197.19 817.6C1195.29 816.347 1193.29 815.72 1191.19 815.72C1188.52 815.72 1187.19 816.493 1187.19 818.04C1187.19 818.573 1187.33 819.013 1187.63 819.36C1187.95 819.707 1188.48 820.04 1189.23 820.36C1189.97 820.653 1191.08 821 1192.55 821.4C1194.84 822.04 1196.55 822.827 1197.67 823.76C1198.81 824.693 1199.39 826.093 1199.39 827.96C1199.39 830.12 1198.49 831.76 1196.71 832.88C1194.92 833.973 1192.71 834.52 1190.07 834.52C1186.57 834.52 1183.68 833.533 1181.39 831.56L1183.75 828.84C1184.63 829.533 1185.6 830.093 1186.67 830.52C1187.76 830.92 1188.89 831.12 1190.07 831.12ZM1210.85 815.48C1211.71 814.44 1212.69 813.653 1213.81 813.12C1214.96 812.587 1216.16 812.32 1217.41 812.32C1219.36 812.32 1220.83 812.867 1221.81 813.96C1222.8 815.027 1223.29 816.573 1223.29 818.6V834H1218.81V819.28C1218.81 818.027 1218.57 817.133 1218.09 816.6C1217.61 816.04 1216.84 815.76 1215.77 815.76C1214.84 815.76 1213.93 816.067 1213.05 816.68C1212.2 817.267 1211.47 818 1210.85 818.88V834H1206.37V804.44L1210.85 803.96V815.48ZM1234.08 824.88C1234.21 826.933 1234.8 828.48 1235.84 829.52C1236.9 830.533 1238.24 831.04 1239.84 831.04C1240.82 831.04 1241.76 830.893 1242.64 830.6C1243.54 830.28 1244.46 829.813 1245.4 829.2L1247.32 831.92C1246.33 832.747 1245.17 833.387 1243.84 833.84C1242.5 834.293 1241.1 834.52 1239.64 834.52C1236.41 834.52 1233.9 833.52 1232.12 831.52C1230.33 829.493 1229.44 826.8 1229.44 823.44C1229.44 821.333 1229.82 819.44 1230.6 817.76C1231.37 816.053 1232.49 814.72 1233.96 813.76C1235.42 812.8 1237.13 812.32 1239.08 812.32C1241.88 812.32 1244.09 813.267 1245.72 815.16C1247.37 817.027 1248.2 819.6 1248.2 822.88C1248.2 823.68 1248.16 824.347 1248.08 824.88H1234.08ZM1239.12 815.64C1237.68 815.64 1236.5 816.16 1235.6 817.2C1234.69 818.24 1234.17 819.787 1234.04 821.84H1243.84C1243.78 819.84 1243.36 818.307 1242.56 817.24C1241.76 816.173 1240.61 815.64 1239.12 815.64ZM1271.22 804.4V834H1267.26L1266.94 831.4C1266.25 832.413 1265.39 833.187 1264.38 833.72C1263.37 834.253 1262.25 834.52 1261.02 834.52C1258.38 834.52 1256.39 833.533 1255.06 831.56C1253.73 829.587 1253.06 826.88 1253.06 823.44C1253.06 821.28 1253.39 819.36 1254.06 817.68C1254.75 816 1255.73 814.693 1256.98 813.76C1258.23 812.8 1259.71 812.32 1261.42 812.32C1263.58 812.32 1265.35 813.093 1266.74 814.64V803.88L1271.22 804.4ZM1262.58 815.76C1261.03 815.76 1259.85 816.4 1259.02 817.68C1258.22 818.933 1257.82 820.853 1257.82 823.44C1257.82 828.56 1259.29 831.12 1262.22 831.12C1263.98 831.12 1265.49 830.107 1266.74 828.08V818.12C1265.65 816.547 1264.26 815.76 1262.58 815.76ZM1295.97 880.88C1295.17 881.387 1294.23 881.787 1293.17 882.08C1292.1 882.373 1290.98 882.52 1289.81 882.52C1287.41 882.52 1285.55 881.907 1284.25 880.68C1282.94 879.427 1282.29 877.733 1282.29 875.6V864.16H1277.61V860.88H1282.29V856.16L1286.77 855.64V860.88H1293.93L1293.41 864.16H1286.77V875.56C1286.77 876.707 1287.06 877.56 1287.65 878.12C1288.23 878.653 1289.17 878.92 1290.45 878.92C1291.86 878.92 1293.17 878.587 1294.37 877.92L1295.97 880.88ZM1318.47 876.84C1318.47 877.64 1318.59 878.24 1318.83 878.64C1319.07 879.013 1319.48 879.293 1320.07 879.48L1319.03 882.52C1316.82 882.253 1315.36 881.28 1314.67 879.6C1313.9 880.56 1312.92 881.293 1311.75 881.8C1310.6 882.28 1309.34 882.52 1307.95 882.52C1305.82 882.52 1304.12 881.92 1302.87 880.72C1301.62 879.52 1300.99 877.933 1300.99 875.96C1300.99 873.747 1301.86 872.04 1303.59 870.84C1305.35 869.64 1307.83 869.04 1311.03 869.04H1314.03V867.68C1314.03 866.347 1313.63 865.373 1312.83 864.76C1312.03 864.147 1310.87 863.84 1309.35 863.84C1308.6 863.84 1307.74 863.933 1306.75 864.12C1305.76 864.307 1304.76 864.573 1303.75 864.92L1302.63 861.76C1305.16 860.8 1307.63 860.32 1310.03 860.32C1312.83 860.32 1314.94 860.933 1316.35 862.16C1317.76 863.387 1318.47 865.133 1318.47 867.4V876.84ZM1309.27 879.24C1310.2 879.24 1311.1 879 1311.95 878.52C1312.83 878.04 1313.52 877.373 1314.03 876.52V871.84H1311.55C1309.52 871.84 1308.04 872.187 1307.11 872.88C1306.18 873.547 1305.71 874.52 1305.71 875.8C1305.71 876.92 1306 877.773 1306.59 878.36C1307.2 878.947 1308.1 879.24 1309.27 879.24ZM1330.89 882H1326.41V852.4L1330.89 851.88V882ZM1336.37 870.32L1345.77 882H1340.29L1331.21 870.44L1339.69 860.88H1344.89L1336.37 870.32ZM1354 872.88C1354.13 874.933 1354.72 876.48 1355.76 877.52C1356.83 878.533 1358.16 879.04 1359.76 879.04C1360.75 879.04 1361.68 878.893 1362.56 878.6C1363.47 878.28 1364.39 877.813 1365.32 877.2L1367.24 879.92C1366.25 880.747 1365.09 881.387 1363.76 881.84C1362.43 882.293 1361.03 882.52 1359.56 882.52C1356.33 882.52 1353.83 881.52 1352.04 879.52C1350.25 877.493 1349.36 874.8 1349.36 871.44C1349.36 869.333 1349.75 867.44 1350.52 865.76C1351.29 864.053 1352.41 862.72 1353.88 861.76C1355.35 860.8 1357.05 860.32 1359 860.32C1361.8 860.32 1364.01 861.267 1365.64 863.16C1367.29 865.027 1368.12 867.6 1368.12 870.88C1368.12 871.68 1368.08 872.347 1368 872.88H1354ZM1359.04 863.64C1357.6 863.64 1356.43 864.16 1355.52 865.2C1354.61 866.24 1354.09 867.787 1353.96 869.84H1363.76C1363.71 867.84 1363.28 866.307 1362.48 865.24C1361.68 864.173 1360.53 863.64 1359.04 863.64ZM1118.88 898.52C1119.73 898.52 1120.42 898.8 1120.96 899.36C1121.52 899.893 1121.8 900.56 1121.8 901.36C1121.8 902.16 1121.52 902.827 1120.96 903.36C1120.42 903.893 1119.73 904.16 1118.88 904.16C1118 904.16 1117.29 903.893 1116.76 903.36C1116.22 902.827 1115.96 902.16 1115.96 901.36C1115.96 900.533 1116.22 899.853 1116.76 899.32C1117.32 898.787 1118.02 898.52 1118.88 898.52ZM1121.96 926.72H1127.72V930H1111.2V926.72H1117.48V912.16H1111.4V908.88H1121.96V926.72ZM1151.3 900.4V930H1147.34L1147.02 927.4C1146.33 928.413 1145.47 929.187 1144.46 929.72C1143.45 930.253 1142.33 930.52 1141.1 930.52C1138.46 930.52 1136.47 929.533 1135.14 927.56C1133.81 925.587 1133.14 922.88 1133.14 919.44C1133.14 917.28 1133.47 915.36 1134.14 913.68C1134.83 912 1135.81 910.693 1137.06 909.76C1138.31 908.8 1139.79 908.32 1141.5 908.32C1143.66 908.32 1145.43 909.093 1146.82 910.64V899.88L1151.3 900.4ZM1142.66 911.76C1141.11 911.76 1139.93 912.4 1139.1 913.68C1138.3 914.933 1137.9 916.853 1137.9 919.44C1137.9 924.56 1139.37 927.12 1142.3 927.12C1144.06 927.12 1145.57 926.107 1146.82 924.08V914.12C1145.73 912.547 1144.34 911.76 1142.66 911.76ZM1128.08 976.88C1127.28 977.387 1126.34 977.787 1125.28 978.08C1124.21 978.373 1123.09 978.52 1121.92 978.52C1119.52 978.52 1117.66 977.907 1116.36 976.68C1115.05 975.427 1114.4 973.733 1114.4 971.6V960.16H1109.72V956.88H1114.4V952.16L1118.88 951.64V956.88H1126.04L1125.52 960.16H1118.88V971.56C1118.88 972.707 1119.17 973.56 1119.76 974.12C1120.34 974.653 1121.28 974.92 1122.56 974.92C1123.97 974.92 1125.28 974.587 1126.48 973.92L1128.08 976.88ZM1138.14 968.88C1138.27 970.933 1138.86 972.48 1139.9 973.52C1140.97 974.533 1142.3 975.04 1143.9 975.04C1144.89 975.04 1145.82 974.893 1146.7 974.6C1147.61 974.28 1148.53 973.813 1149.46 973.2L1151.38 975.92C1150.39 976.747 1149.23 977.387 1147.9 977.84C1146.57 978.293 1145.17 978.52 1143.7 978.52C1140.47 978.52 1137.97 977.52 1136.18 975.52C1134.39 973.493 1133.5 970.8 1133.5 967.44C1133.5 965.333 1133.89 963.44 1134.66 961.76C1135.43 960.053 1136.55 958.72 1138.02 957.76C1139.49 956.8 1141.19 956.32 1143.14 956.32C1145.94 956.32 1148.15 957.267 1149.78 959.16C1151.43 961.027 1152.26 963.6 1152.26 966.88C1152.26 967.68 1152.22 968.347 1152.14 968.88H1138.14ZM1143.18 959.64C1141.74 959.64 1140.57 960.16 1139.66 961.2C1138.75 962.24 1138.23 963.787 1138.1 965.84H1147.9C1147.85 963.84 1147.42 962.307 1146.62 961.24C1145.82 960.173 1144.67 959.64 1143.18 959.64ZM1156.56 978L1164.16 966.88L1157.4 956.88H1162.56L1166.88 964.32L1171.2 956.88H1176.12L1169.52 966.68L1177.12 978H1171.88L1166.68 969.36L1161.52 978H1156.56ZM1200.03 976.88C1199.23 977.387 1198.29 977.787 1197.23 978.08C1196.16 978.373 1195.04 978.52 1193.87 978.52C1191.47 978.52 1189.61 977.907 1188.31 976.68C1187 975.427 1186.35 973.733 1186.35 971.6V960.16H1181.67V956.88H1186.35V952.16L1190.83 951.64V956.88H1197.99L1197.47 960.16H1190.83V971.56C1190.83 972.707 1191.12 973.56 1191.71 974.12C1192.29 974.653 1193.23 974.92 1194.51 974.92C1195.92 974.92 1197.23 974.587 1198.43 973.92L1200.03 976.88Z" fill="#1D75B3"/>
<path d="M1271.98 446.48V450H1255.3V446.48H1262.02V427L1255.94 430.72L1254.02 427.6L1262.5 422.4H1266.46V446.48H1271.98ZM1286.77 421.84C1289.83 421.84 1292.17 423.08 1293.77 425.56C1295.37 428.013 1296.17 431.547 1296.17 436.16C1296.17 440.773 1295.37 444.32 1293.77 446.8C1292.17 449.28 1289.83 450.52 1286.77 450.52C1283.7 450.52 1281.37 449.28 1279.77 446.8C1278.17 444.32 1277.37 440.773 1277.37 436.16C1277.37 431.547 1278.17 428.013 1279.77 425.56C1281.37 423.08 1283.7 421.84 1286.77 421.84ZM1286.77 425.28C1285.17 425.28 1283.95 426.147 1283.13 427.88C1282.3 429.613 1281.89 432.373 1281.89 436.16C1281.89 440 1282.3 442.787 1283.13 444.52C1283.95 446.253 1285.17 447.12 1286.77 447.12C1288.37 447.12 1289.58 446.253 1290.41 444.52C1291.23 442.787 1291.65 440 1291.65 436.16C1291.65 432.347 1291.23 429.587 1290.41 427.88C1289.58 426.147 1288.37 425.28 1286.77 425.28ZM1286.77 433.6C1287.51 433.6 1288.14 433.853 1288.65 434.36C1289.15 434.867 1289.41 435.48 1289.41 436.2C1289.41 436.947 1289.15 437.573 1288.65 438.08C1288.14 438.587 1287.51 438.84 1286.77 438.84C1286.02 438.84 1285.39 438.587 1284.89 438.08C1284.41 437.573 1284.17 436.947 1284.17 436.2C1284.17 435.48 1284.41 434.867 1284.89 434.36C1285.39 433.853 1286.02 433.6 1286.77 433.6ZM1319.95 638.48V642H1303.27V638.48H1309.99V619L1303.91 622.72L1301.99 619.6L1310.47 614.4H1314.43V638.48H1319.95ZM1334.73 613.84C1337.8 613.84 1340.13 615.08 1341.73 617.56C1343.33 620.013 1344.13 623.547 1344.13 628.16C1344.13 632.773 1343.33 636.32 1341.73 638.8C1340.13 641.28 1337.8 642.52 1334.73 642.52C1331.67 642.52 1329.33 641.28 1327.73 638.8C1326.13 636.32 1325.33 632.773 1325.33 628.16C1325.33 623.547 1326.13 620.013 1327.73 617.56C1329.33 615.08 1331.67 613.84 1334.73 613.84ZM1334.73 617.28C1333.13 617.28 1331.92 618.147 1331.09 619.88C1330.27 621.613 1329.85 624.373 1329.85 628.16C1329.85 632 1330.27 634.787 1331.09 636.52C1331.92 638.253 1333.13 639.12 1334.73 639.12C1336.33 639.12 1337.55 638.253 1338.37 636.52C1339.2 634.787 1339.61 632 1339.61 628.16C1339.61 624.347 1339.2 621.587 1338.37 619.88C1337.55 618.147 1336.33 617.28 1334.73 617.28ZM1334.73 625.6C1335.48 625.6 1336.11 625.853 1336.61 626.36C1337.12 626.867 1337.37 627.48 1337.37 628.2C1337.37 628.947 1337.12 629.573 1336.61 630.08C1336.11 630.587 1335.48 630.84 1334.73 630.84C1333.99 630.84 1333.36 630.587 1332.85 630.08C1332.37 629.573 1332.13 628.947 1332.13 628.2C1332.13 627.48 1332.37 626.867 1332.85 626.36C1333.36 625.853 1333.99 625.6 1334.73 625.6ZM1439.87 878.48V882H1423.19V878.48H1429.91V859L1423.83 862.72L1421.91 859.6L1430.39 854.4H1434.35V878.48H1439.87ZM1454.66 853.84C1457.72 853.84 1460.06 855.08 1461.66 857.56C1463.26 860.013 1464.06 863.547 1464.06 868.16C1464.06 872.773 1463.26 876.32 1461.66 878.8C1460.06 881.28 1457.72 882.52 1454.66 882.52C1451.59 882.52 1449.26 881.28 1447.66 878.8C1446.06 876.32 1445.26 872.773 1445.26 868.16C1445.26 863.547 1446.06 860.013 1447.66 857.56C1449.26 855.08 1451.59 853.84 1454.66 853.84ZM1454.66 857.28C1453.06 857.28 1451.84 858.147 1451.02 859.88C1450.19 861.613 1449.78 864.373 1449.78 868.16C1449.78 872 1450.19 874.787 1451.02 876.52C1451.84 878.253 1453.06 879.12 1454.66 879.12C1456.26 879.12 1457.47 878.253 1458.3 876.52C1459.12 874.787 1459.54 872 1459.54 868.16C1459.54 864.347 1459.12 861.587 1458.3 859.88C1457.47 858.147 1456.26 857.28 1454.66 857.28ZM1454.66 865.6C1455.4 865.6 1456.03 865.853 1456.54 866.36C1457.04 866.867 1457.3 867.48 1457.3 868.2C1457.3 868.947 1457.04 869.573 1456.54 870.08C1456.03 870.587 1455.4 870.84 1454.66 870.84C1453.91 870.84 1453.28 870.587 1452.78 870.08C1452.3 869.573 1452.06 868.947 1452.06 868.2C1452.06 867.48 1452.3 866.867 1452.78 866.36C1453.28 865.853 1453.91 865.6 1454.66 865.6Z" fill="#75438A"/>
<defs>
<filter id="filter0_d" x="810" y="256" width="852" height="1049" filterUnits="userSpaceOnUse" color-interpolation-filters="sRGB">
<feFlood flood-opacity="0" result="BackgroundImageFix"/>
<feColorMatrix in="SourceAlpha" type="matrix" values="0 0 0 0 0 0 0 0 0 0 0 0 0 0 0 0 0 0 127 0"/>
<feOffset dy="5"/>
<feGaussianBlur stdDeviation="10"/>
<feColorMatrix type="matrix" values="0 0 0 0 0 0 0 0 0 0 0 0 0 0 0 0 0 0 0.25 0"/>
<feBlend mode="normal" in2="BackgroundImageFix" result="effect1_dropShadow"/>
<feBlend mode="normal" in="SourceGraphic" in2="effect1_dropShadow" result="shape"/>
</filter>
</defs>
</svg>
